<svg width="132" height="32" viewBox="0 0 132 32" fill="none" xmlns="http://www.w3.org/2000/svg">
<g clip-path="url(#clip0_32_1606)">
<path d="M113.668 -6.10352e-05C111.598 -6.10352e-05 109.905 1.67174 109.91 3.74183C109.905 5.82241 111.613 7.48897 113.689 7.48373C115.759 7.48897 117.415 5.82241 117.415 3.74183C117.41 1.67698 115.738 -6.10352e-05 113.668 -6.10352e-05ZM45.7372 0.0628279C43.6566 0.0628279 41.9796 1.7189 41.9796 3.789C41.9796 5.86958 43.6619 7.56234 45.7372 7.56758C47.8021 7.56758 49.4791 5.86958 49.4791 3.789C49.4843 1.7189 47.8021 0.0628279 45.7372 0.0628279ZM101.635 4.26591C99.5702 4.26591 97.8774 5.93771 97.8774 8.0078C97.8774 10.0779 99.5649 11.7654 101.635 11.7654C103.71 11.7654 105.377 10.0831 105.377 8.0078C105.382 5.94295 103.71 4.26591 101.635 4.26591ZM125.774 4.26591C123.709 4.26591 122.016 5.93771 122.016 8.0078C122.016 10.0779 123.709 11.7654 125.774 11.7654C127.854 11.7654 129.5 10.0779 129.5 8.0078C129.5 5.93771 127.854 4.26067 125.774 4.26591ZM57.5761 4.3288C55.5112 4.3288 53.8184 6.02156 53.8184 8.08641C53.8184 10.1617 55.506 11.8283 57.5761 11.8283C59.6357 11.8283 61.318 10.1565 61.318 8.08641C61.318 6.02156 59.6409 4.3288 57.5761 4.3288ZM33.6783 4.42837C31.6134 4.42313 29.9364 6.09493 29.9364 8.15978V8.1755C29.9364 10.2508 31.6029 11.9384 33.6783 11.9331C35.7379 11.9331 37.4202 10.2456 37.4202 8.1755C37.4202 6.10017 35.7379 4.42837 33.6783 4.42837ZM114.952 13.1699C114.952 13.1699 107.505 13.2171 107.416 13.2171C106.147 13.2171 105.073 14.2967 105.073 15.5597L105.057 29.1018H105.073C105.131 30.7055 106.472 31.9999 108.086 31.9999C109.716 31.9999 111.058 30.7055 111.116 29.1018V24.3956C111.116 24.3956 114.092 24.3799 114.192 24.3799C115.34 24.3799 116.293 23.468 116.293 22.315C116.293 21.1568 115.345 20.2135 114.192 20.2135H111.116V18.961H114.957C116.55 18.961 117.829 17.6875 117.824 16.0943C117.818 14.5168 116.545 13.1699 114.952 13.1699ZM128.656 13.1699C128.656 13.1699 121.209 13.2171 121.12 13.2171C119.841 13.2171 118.777 14.2915 118.777 15.5597V29.1018H118.793C118.846 30.7055 120.166 31.9999 121.791 31.9999C123.426 31.9999 124.736 30.7107 124.789 29.1018H124.804V24.3956C124.804 24.3956 127.776 24.3799 127.881 24.3799C129.028 24.3799 129.982 23.468 129.982 22.315C129.982 21.1568 129.028 20.2135 127.881 20.2135H124.799V18.961H128.641C130.223 18.961 131.507 17.6875 131.507 16.0943C131.507 14.5168 130.239 13.1647 128.656 13.1699ZM61.2498 13.2014C59.6619 13.2014 58.3831 14.4801 58.3831 16.0523C58.3831 16.1572 58.4041 16.2672 58.4146 16.3773L58.3989 29.0756L58.4146 29.2223C58.4932 30.7212 59.7352 31.9266 61.2655 31.9266C62.8535 31.9266 64.1322 30.6531 64.1322 29.0756C64.1322 28.8922 64.1165 28.7192 64.0851 28.5568V24.7887L68.351 30.5168C68.4139 30.6111 68.482 30.7055 68.5449 30.8103L68.5607 30.8417C69.1109 31.4811 69.9442 31.8846 70.8561 31.8846C72.5174 31.8846 73.8538 30.543 73.8538 28.8869C73.8591 28.3105 73.6966 27.7445 73.3821 27.2571L73.335 27.1942C73.2931 27.126 73.2564 27.0579 73.204 27.0003L69.3468 21.8224L72.486 18.0281H72.4703C72.879 17.5302 73.1358 16.8961 73.1358 16.1886C73.1306 14.5745 71.8204 13.2433 70.2063 13.2433C69.1476 13.2433 68.2305 13.8041 67.7169 14.6426L64.0851 19.0238V16.4821C64.1008 16.3406 64.1165 16.1886 64.1165 16.0419C64.1165 14.4801 62.8325 13.2014 61.2498 13.2014ZM3.03037 13.2171C1.63109 13.2171 0.509573 14.3596 0.509573 15.7379C0.509573 15.7379 0.493851 29.1857 0.493851 29.411C0.493851 30.8417 1.58393 31.9161 3.01465 31.9161L9.52366 31.9318C12.7205 31.9318 15.3199 29.3481 15.3199 26.1513C15.3199 24.3432 14.5128 22.7343 13.2184 21.6757C13.9783 20.7743 14.4552 19.6056 14.4552 18.3216C14.4604 15.5126 12.1283 13.2066 9.29306 13.2119H3.03037V13.2171ZM46.9793 13.301C41.8643 13.301 37.7031 17.4569 37.7031 22.5771C37.7031 27.6973 41.8643 31.8689 46.9793 31.8689C52.0995 31.8689 56.2606 27.6973 56.2554 22.5771C56.2554 17.4569 52.0995 13.301 46.9793 13.301ZM25.9953 13.3324C20.8699 13.3324 16.7297 17.4988 16.7349 22.6295C16.7349 27.7445 20.8646 31.8951 25.9953 31.8899C31.126 31.8899 35.2714 27.7445 35.2714 22.6295C35.2714 17.504 31.126 13.3324 25.9953 13.3324ZM94.2927 13.3324C89.1516 13.3324 84.9799 17.5145 84.9799 22.6609C84.9799 27.7969 89.1463 31.9737 94.2927 31.9737C99.4287 31.9737 103.606 27.7969 103.606 22.6609C103.606 17.5145 99.4339 13.3324 94.2927 13.3324ZM5.55117 17.4307H7.87806C8.65369 17.4307 9.27734 18.0438 9.27734 18.8299C9.27734 19.5951 8.64845 20.1978 7.87806 20.1978C7.80469 20.1978 5.55117 20.2135 5.55117 20.2135V17.4307ZM78.7854 18.6518C76.7153 18.6518 75.0487 20.3393 75.0435 22.4094C75.0487 24.4795 76.7153 26.167 78.7854 26.167C80.8607 26.167 82.543 24.4795 82.543 22.4094C82.5377 20.3445 80.8502 18.6518 78.7854 18.6518ZM46.9793 18.7356C49.107 18.7356 50.8365 20.4598 50.8365 22.5928C50.8365 24.7153 49.107 26.4343 46.9793 26.4343C44.8515 26.4343 43.1378 24.7048 43.1378 22.5771C43.1326 20.4598 44.8463 18.7409 46.9635 18.7356H46.9793ZM25.9953 18.7671C28.1178 18.7671 29.8525 20.4913 29.8525 22.6242C29.8525 24.752 28.1231 26.471 25.9953 26.4657C23.8885 26.471 22.1591 24.752 22.1539 22.6242C22.1539 20.4913 23.8833 18.7671 25.9953 18.7671ZM94.2927 18.7985C96.4257 18.7985 98.1499 20.5122 98.1499 22.6557C98.1499 24.7834 96.4205 26.5129 94.2927 26.5129C92.1597 26.5129 90.4303 24.7834 90.4355 22.6557C90.4303 20.5279 92.1493 18.8037 94.277 18.7985H94.2927ZM5.55117 24.1703L8.51219 24.186C9.31927 24.186 9.9796 24.8254 9.9796 25.6324C9.97436 26.45 9.32451 27.0998 8.51219 27.0998H5.56689L5.55117 24.1703ZM128.525 27.0998C127.173 27.0998 126.099 28.1847 126.099 29.542C126.104 30.9046 127.168 31.9842 128.525 31.9842C129.877 31.9842 130.967 30.8994 130.967 29.542C130.973 28.1952 129.883 27.1051 128.536 27.0998C128.536 27.0998 128.531 27.0998 128.525 27.0998ZM128.525 27.3462C129.731 27.3462 130.721 28.3262 130.721 29.542C130.721 30.7526 129.731 31.7379 128.525 31.7379C127.315 31.7379 126.345 30.7474 126.345 29.542C126.345 28.3262 127.315 27.3462 128.525 27.3462ZM127.419 28.0956V30.9256H128.006V29.8198H128.609C128.782 29.8198 128.908 29.8408 128.965 29.9036C129.028 29.956 129.065 30.0818 129.065 30.26V30.5221C129.065 30.6111 129.076 30.6845 129.081 30.7684C129.091 30.8155 129.112 30.8732 129.128 30.9308H129.778V30.8679C129.72 30.8365 129.678 30.7631 129.663 30.6898C129.652 30.6426 129.647 30.5587 129.647 30.4277V30.2495C129.647 30.0504 129.621 29.9036 129.563 29.8093C129.511 29.7097 129.406 29.6364 129.285 29.584C129.432 29.5315 129.563 29.4372 129.626 29.3062C129.694 29.1804 129.72 29.0494 129.725 28.9131C129.725 28.7978 129.71 28.7087 129.678 28.6197C129.636 28.5306 129.579 28.452 129.516 28.3733C129.448 28.2843 129.353 28.2214 129.254 28.1794C129.144 28.1323 129.007 28.1061 128.814 28.0956H127.419ZM128.006 28.5987H128.688C128.819 28.5987 128.903 28.6144 128.965 28.6459C129.081 28.7035 129.144 28.8136 129.144 28.9865C129.144 29.1385 129.076 29.2433 128.965 29.2957C128.897 29.3272 128.808 29.3429 128.672 29.3429H128.006V28.5987Z" fill="#CCCCCC"/>
</g>
<defs>
<clipPath id="clip0_32_1606">
<rect width="131.019" height="32" fill="white" transform="translate(0.488647 -6.10352e-05)"/>
</clipPath>
</defs>
</svg>
