<svg width="61" height="32" viewBox="0 0 61 32" fill="none" xmlns="http://www.w3.org/2000/svg">
<path fill-rule="evenodd" clip-rule="evenodd" d="M26.537 27.755C23.953 29.8773 20.5385 31.1691 16.9393 31.1691C8.44904 31.1691 1.64305 24.3398 1.64305 15.9653C1.64305 7.56738 8.44904 0.738042 16.9393 0.738042C22.5688 0.738042 27.4602 3.78349 30.1362 8.39783C30.5053 8.49018 30.7823 8.58253 31.151 8.67487C28.4753 3.50678 23.1225 -6.10352e-05 16.9393 -6.10352e-05C8.07965 -6.10352e-05 0.904602 7.10598 0.904602 15.9653C0.904602 24.8019 8.07999 31.9999 16.9393 31.9999C21.0922 31.9999 24.8758 30.339 27.7369 27.755H26.537Z" fill="#CCCCCC"/>
<path fill-rule="evenodd" clip-rule="evenodd" d="M18.9696 27.0171H60.844V20.7415H18.9696V27.0171Z" fill="#CCCCCC"/>
<path fill-rule="evenodd" clip-rule="evenodd" d="M21.0919 9.50484L20.9072 10.3356H18.8769C18.3232 16.2422 17.9541 21.0175 17.5851 23.2329C16.7546 27.2011 13.0631 29.4158 10.6637 29.4158C9.83326 29.4158 8.81812 29.047 8.81812 28.0319C8.81812 27.4781 9.27952 27.0167 9.83326 27.0167C10.6637 27.0167 11.3098 27.6625 11.7712 28.4006C13.0634 27.6625 13.2478 27.0168 13.8015 24.4324C14.0786 23.2329 14.8167 14.6729 15.1857 10.3356H13.5245L13.7092 9.50484H15.3704L15.5551 8.02863C16.4779 2.58384 20.4461 1.93774 21.923 1.93774C22.6611 1.93774 24.1377 2.3068 24.1377 3.32194C24.1377 3.9677 23.5839 4.24474 23.0302 4.24474C22.015 4.24474 21.5536 3.691 21.0919 2.8602C19.4307 3.59865 19.154 7.65924 18.9693 9.5045H21.0919V9.50484ZM20.9075 17.0723C20.9075 12.7353 23.6763 8.95143 28.3826 8.95143C31.3361 8.95143 32.9966 10.2436 32.9966 13.1044C32.9966 17.4417 30.2282 21.1102 25.5215 21.1102C22.5688 21.1102 20.9075 19.818 20.9075 17.0723ZM29.2134 13.7505C29.2134 12.643 29.1211 9.96693 27.4602 9.96693C25.0608 9.96693 24.6914 14.6733 24.6914 16.4269C24.6914 17.442 24.7838 20.1878 26.4447 20.1878C28.844 20.1874 29.2134 15.5037 29.2134 13.7505ZM34.0121 17.0723C34.0121 12.7353 36.8732 8.95143 41.5796 8.95143C44.4407 8.95143 46.1706 10.2436 46.1706 13.1044C46.1706 17.4417 43.3328 21.1102 38.6265 21.1102C35.7654 21.1102 34.0121 19.818 34.0121 17.0723ZM42.41 13.7505C42.41 12.643 42.318 9.96693 40.6568 9.96693C38.1651 9.96693 37.8884 14.6733 37.8884 16.4269C37.8884 17.442 37.8884 20.1878 39.5493 20.1878C42.0406 20.1874 42.41 15.5037 42.41 13.7505ZM60.4753 19.726C58.8138 20.4641 56.7835 21.1099 55.3996 21.1099C54.6615 21.1099 54.7532 20.002 54.7532 19.541C54.7532 18.9879 54.7532 18.2488 54.9382 16.7959L54.8455 16.7032C53.9227 18.6182 52.0771 21.1099 49.6778 21.1099C47.8318 21.1099 47.001 19.1719 47.001 17.534C47.001 13.4731 50.2308 9.13613 54.8455 9.13613H55.7683C56.1377 6.27504 56.1377 5.07554 56.1377 4.1524C56.1377 3.87569 56.1377 3.59865 55.8607 3.59865C55.5836 3.59865 55.2149 3.691 54.2918 3.9677L54.1074 3.2296C55.9533 2.58384 57.9836 2.21445 59.8289 2.1221C60.0139 2.1221 60.1059 2.1221 60.1059 2.49115C60.1059 4.8905 58.26 17.4413 58.26 18.7109C58.26 18.9879 58.26 19.449 58.6294 19.449C58.8138 19.449 59.4602 19.2639 60.1983 18.9876L60.4753 19.726ZM54.4761 15.7808C55.1225 14.2119 55.3069 12.643 55.6763 10.2436C55.4913 10.1509 55.3069 10.1509 55.2149 10.1509C52.3538 10.1509 50.9693 14.3962 50.9693 16.7032C50.9693 17.257 51.062 18.6182 51.8924 18.6182C53.0923 18.6185 54.1074 16.7036 54.4761 15.7808Z" fill="#CCCCCC"/>
<path fill-rule="evenodd" clip-rule="evenodd" d="M21.4613 22.2176H22.4764L23.7683 24.1555V22.2176H24.5991V25.9088H23.8606L22.2917 23.7868V25.9088H21.4613V22.2176ZM26.9981 22.2176H29.8592V22.956H28.1056V23.6014H29.2134V24.4322H28.1056V25.078H29.8592V25.9088H26.9981V22.2176ZM32.905 22.956H31.8898V22.2176H35.0273V22.956H34.0121V25.9088H32.905V22.956ZM36.8732 22.2176H37.98L38.4421 24.1555H38.5338L38.9952 22.2176H39.9186L40.3797 24.1555H40.4724L40.9338 22.2176H41.7639L40.8411 25.9088H39.9186L39.3646 23.8785L38.8108 25.9088H37.8883L36.8732 22.2176ZM45.5248 26.0015C44.4406 26.0015 43.7022 25.2634 43.7022 24.0632C43.7022 22.8637 44.4403 22.1252 45.5248 22.1252C46.6326 22.1252 47.278 22.8633 47.278 24.0632C47.278 25.263 46.6323 26.0015 45.5248 26.0015ZM44.879 24.0628C44.879 25.078 45.1561 25.263 45.5248 25.263C45.8942 25.263 46.1705 25.078 46.1705 24.0628C46.1705 23.0484 45.8942 22.8633 45.5248 22.8633C45.0634 22.8633 44.879 23.1404 44.879 24.0628ZM49.4927 22.2176H51.3386C52.5381 22.2176 52.8152 22.7707 52.8152 23.2327C52.8152 23.6941 52.5381 24.0628 52.0771 24.1555L52.8152 25.9088H51.6157L51.0619 24.3399H50.6005V25.9088H49.4927V22.2176ZM50.6005 23.6941H51.1543C51.4306 23.6941 51.708 23.5091 51.708 23.3247C51.708 23.0484 51.523 22.8633 51.1543 22.8633H50.6005V23.6941ZM55.1225 22.2176H56.23V23.6941L57.3372 22.2176H58.3523L57.4295 23.4171L58.5367 25.9088H57.4295L56.6914 24.3399L56.23 24.9863V25.9088H55.1225V22.2176Z" fill="white"/>
</svg>
