<svg width="84" height="32" viewBox="0 0 84 32" fill="none" xmlns="http://www.w3.org/2000/svg">
<g clip-path="url(#clip0_32_1598)">
<path d="M73.5021 18.3891C73.1782 18.3891 72.9353 18.3081 72.7464 18.1192C72.5844 17.9572 72.4765 17.6873 72.4765 17.3634V7.40398C72.4765 7.08009 72.5574 6.81019 72.7464 6.64825C72.9353 6.4863 73.1782 6.40533 73.5021 6.40533H75.3104C75.7153 6.40533 76.0662 6.43232 76.3631 6.45931C76.66 6.51329 76.9299 6.59427 77.1188 6.75621C77.3347 6.91815 77.4697 7.13407 77.5776 7.45796C77.6856 7.75485 77.7396 8.1867 77.7396 8.69952V16.0949C77.7396 16.7696 77.6586 17.2555 77.4697 17.5794C77.2807 17.9032 77.0108 18.1192 76.66 18.2271C76.3091 18.3351 75.8503 18.3891 75.3104 18.3621L73.5021 18.3891ZM67.6992 0.602395C67.3753 0.629385 67.1054 0.710357 66.9434 0.872299C66.7815 1.03424 66.7005 1.30415 66.7005 1.62803V23.1664C66.7005 23.4903 66.7815 23.7332 66.9704 23.9221C67.1324 24.0841 67.4023 24.192 67.7261 24.192H75.2295C76.7949 24.192 78.1444 24.0301 79.224 23.7062C80.3037 23.3823 81.1674 22.8695 81.8151 22.2217C82.4629 21.5739 82.9487 20.7102 83.2186 19.6846C83.5155 18.659 83.6505 17.4714 83.6505 16.0949V8.69952C83.6505 7.32301 83.5155 6.13543 83.2186 5.10979C82.9217 4.08416 82.4629 3.24746 81.8151 2.59969C81.1674 1.92492 80.3037 1.4391 79.224 1.11521C78.1444 0.791328 76.8219 0.629385 75.2295 0.629385L67.6992 0.602395ZM57.8746 14.8263C57.8746 15.4741 57.8477 16.0679 57.8207 16.5807C57.7667 17.0935 57.6587 17.5254 57.4968 17.9032C57.3348 18.2811 57.0649 18.551 56.6871 18.74C56.3362 18.9289 55.8504 19.0368 55.2296 19.0368C54.6088 19.0368 54.123 18.9289 53.7721 18.74C53.3942 18.551 53.1513 18.2811 52.9624 17.9032C52.8004 17.5524 52.6925 17.0935 52.6385 16.5807C52.5845 16.0679 52.5575 15.4741 52.5845 14.8263V9.96807C52.5845 9.3203 52.6115 8.72651 52.6385 8.21369C52.6925 7.70087 52.8004 7.26903 52.9624 6.89116C53.1243 6.51329 53.3942 6.24339 53.7721 6.05446C54.123 5.86552 54.6088 5.75756 55.2296 5.75756C55.8504 5.75756 56.3362 5.86552 56.6871 6.05446C57.0649 6.24339 57.3078 6.51329 57.4968 6.89116C57.6587 7.24204 57.7667 7.70087 57.8207 8.21369C57.8746 8.72651 57.8746 9.3203 57.8746 9.96807V14.8263ZM63.6506 8.1867C63.6506 7.80883 63.6236 7.35 63.5696 6.81019C63.5156 6.27038 63.4077 5.70358 63.2187 5.0828C63.0298 4.46202 62.7599 3.86823 62.409 3.27445C62.0312 2.68066 61.5453 2.14085 60.9246 1.65502C60.3038 1.16919 59.5211 0.764337 58.5764 0.467443C57.6317 0.170548 56.4981 0.0355964 55.1756 0.00860596C53.8531 0.00860596 52.7195 0.170548 51.7748 0.467443C50.8301 0.764337 50.0474 1.16919 49.4266 1.65502C48.8059 2.14085 48.32 2.68066 47.9422 3.27445C47.5643 3.86823 47.2944 4.48901 47.1325 5.0828C46.9435 5.70358 46.8356 6.27038 46.7816 6.81019C46.7276 7.35 46.7006 7.80883 46.7006 8.1867V16.6077C46.7006 16.9856 46.7276 17.4444 46.7816 17.9842C46.8356 18.524 46.9435 19.0908 47.1325 19.7116C47.2944 20.3324 47.5913 20.9262 47.9422 21.52C48.32 22.1137 48.8059 22.6536 49.4266 23.1664C50.0474 23.6522 50.8301 24.0571 51.7748 24.327C52.7195 24.6239 53.8531 24.7858 55.1756 24.7858C56.4981 24.7858 57.6317 24.6239 58.5764 24.327C59.5211 24.0301 60.3038 23.6522 60.9246 23.1664C61.5453 22.6805 62.0312 22.1407 62.409 21.52C62.7869 20.9262 63.0568 20.3054 63.2187 19.7116C63.3807 19.0908 63.5156 18.524 63.5696 17.9842C63.6236 17.4444 63.6506 16.9856 63.6506 16.6077V8.1867ZM38.2526 14.8263C38.2526 15.4741 38.2256 16.0679 38.1986 16.5807C38.1447 17.0935 38.0367 17.5254 37.8748 17.9032C37.7128 18.2811 37.4429 18.551 37.065 18.74C36.7142 18.9289 36.2283 19.0368 35.6076 19.0368C34.9868 19.0368 34.5009 18.9289 34.1501 18.74C33.7722 18.551 33.5293 18.2811 33.3404 17.9032C33.1784 17.5524 33.0705 17.0935 33.0165 16.5807C32.9625 16.0679 32.9355 15.4741 32.9625 14.8263V9.96807C32.9625 9.3203 32.9895 8.72651 33.0165 8.21369C33.0705 7.70087 33.1784 7.26903 33.3404 6.89116C33.5023 6.51329 33.7722 6.24339 34.1501 6.05446C34.5009 5.86552 34.9868 5.75756 35.6076 5.75756C36.2283 5.75756 36.7142 5.86552 37.065 6.05446C37.4429 6.24339 37.6858 6.51329 37.8748 6.89116C38.0367 7.24204 38.1447 7.70087 38.1986 8.21369C38.2526 8.72651 38.2526 9.3203 38.2526 9.96807V14.8263ZM44.0556 8.1867C44.0556 7.80883 44.0286 7.35 43.9746 6.81019C43.9206 6.27038 43.8126 5.70358 43.6237 5.0828C43.4348 4.46202 43.1649 3.86823 42.814 3.27445C42.4361 2.68066 41.9503 2.14085 41.3295 1.65502C40.7087 1.16919 39.926 0.764337 38.9814 0.467443C38.0367 0.170548 36.9031 0.0355964 35.5806 0.00860596C34.258 0.00860596 33.1244 0.170548 32.1798 0.467443C31.2351 0.764337 30.4524 1.16919 29.8316 1.65502C29.2108 2.14085 28.725 2.68066 28.3471 3.27445C27.9693 3.86823 27.6994 4.48901 27.5374 5.0828C27.3485 5.70358 27.2405 6.27038 27.1865 6.81019C27.1326 7.35 27.1056 7.80883 27.1056 8.1867V16.6077C27.1056 16.9856 27.1326 17.4444 27.1865 17.9842C27.2405 18.524 27.3485 19.0908 27.5374 19.7116C27.6994 20.3324 27.9963 20.9262 28.3471 21.52C28.725 22.1137 29.2108 22.6536 29.8316 23.1664C30.4524 23.6522 31.2351 24.0571 32.1798 24.327C33.1244 24.6239 34.258 24.7858 35.5806 24.7858C36.9031 24.7858 38.0367 24.6239 38.9814 24.327C39.926 24.0301 40.7087 23.6522 41.3295 23.1664C41.9503 22.6805 42.4361 22.1407 42.814 21.52C43.1919 20.9262 43.4618 20.3054 43.6237 19.7116C43.7857 19.0908 43.9206 18.524 43.9746 17.9842C44.0286 17.4444 44.0556 16.9856 44.0556 16.6077V8.1867ZM24.1366 0.602395C24.8114 0.602395 25.1353 0.95327 25.1353 1.60104V5.3797C25.1353 5.70358 25.0543 5.9465 24.8924 6.13543C24.7304 6.32436 24.4605 6.40533 24.1366 6.40533H15.3378C15.0139 6.40533 14.771 6.4863 14.582 6.64825C14.3931 6.81019 14.3121 7.08009 14.3121 7.40398V23.1934C14.3121 23.5173 14.2312 23.7602 14.0692 23.9491C13.9073 24.111 13.6374 24.219 13.3135 24.219H9.34589C9.02201 24.219 8.77909 24.138 8.59016 23.9491C8.42822 23.7602 8.32026 23.5173 8.32026 23.1934V1.62803C8.32026 1.30415 8.40123 1.03424 8.59016 0.872299C8.77909 0.710357 9.02201 0.629385 9.34589 0.629385L24.1366 0.602395Z" fill="#CCCCCC"/>
<path d="M82.112 29.4543C82.112 29.4273 82.085 29.4273 82.085 29.4003C82.085 29.3733 82.085 29.3733 82.112 29.3463L83.4615 27.511C83.5155 27.43 83.5155 27.376 83.4885 27.349C83.4615 27.3221 83.4075 27.2681 83.3266 27.2681H82.3549C82.3009 27.2681 82.247 27.2681 82.22 27.2951C82.193 27.3221 82.139 27.349 82.112 27.403L81.0594 28.8335C81.0324 28.8605 81.0324 28.8605 81.0054 28.8605C80.9784 28.8605 80.9784 28.8335 80.9784 28.8065V27.484C80.9784 27.349 80.9244 27.2951 80.7895 27.2951H80.0337C79.9798 27.2951 79.9258 27.3221 79.8988 27.349C79.8718 27.376 79.8448 27.43 79.8448 27.511V31.7755C79.8448 31.8294 79.8718 31.8834 79.8988 31.9104C79.9258 31.9374 79.9798 31.9644 80.0337 31.9644H80.7895C80.8435 31.9644 80.8974 31.9374 80.9514 31.9104C81.0054 31.8834 81.0054 31.8294 81.0054 31.7755V31.0467V30.9927C81.0054 30.9658 81.0054 30.9658 81.0324 30.9388L81.3023 30.5609C81.3023 30.5339 81.3293 30.5339 81.3563 30.5339C81.3833 30.5339 81.3833 30.5339 81.4103 30.5609L82.247 31.8294C82.2739 31.8834 82.3009 31.9104 82.3549 31.9374C82.3819 31.9644 82.4359 31.9644 82.4899 31.9644H83.4885C83.5695 31.9644 83.6235 31.9374 83.6504 31.8834C83.6774 31.8294 83.6774 31.7755 83.6235 31.7215L82.112 29.4543ZM76.0662 27.2681C76.0122 27.2681 75.9582 27.2951 75.9312 27.322C75.9042 27.349 75.8772 27.403 75.8772 27.484V30.4529C75.8772 30.5339 75.8772 30.6149 75.9042 30.7228C75.9042 30.8308 75.9312 30.9388 75.9852 31.0737C76.0122 31.1817 76.0662 31.3166 76.1471 31.4246C76.2281 31.5326 76.3091 31.6405 76.444 31.7485C76.579 31.8564 76.7139 31.9104 76.9029 31.9914C77.0918 32.0454 77.3077 32.0724 77.5776 32.0724C77.8475 32.0724 78.0634 32.0454 78.2524 31.9914C78.4413 31.9374 78.6033 31.8564 78.7112 31.7485C78.8462 31.6405 78.9271 31.5326 79.0081 31.4246C79.0891 31.3166 79.1431 31.1817 79.1701 31.0737C79.197 30.9658 79.224 30.8308 79.224 30.7228C79.224 30.6149 79.251 30.5339 79.251 30.4529V27.484C79.251 27.349 79.197 27.2951 79.0621 27.2951H78.3064C78.2524 27.2951 78.1984 27.3221 78.1714 27.349C78.1444 27.376 78.1174 27.43 78.1174 27.511V30.4799C78.1174 30.5879 78.0904 30.6689 78.0634 30.7498C78.0365 30.8308 77.9825 30.8848 77.9015 30.9118C77.8205 30.9388 77.7396 30.9658 77.6046 30.9658C77.4697 30.9658 77.3887 30.9388 77.3077 30.9118C77.2267 30.8848 77.1728 30.8308 77.1458 30.7498C77.1188 30.6689 77.0918 30.5879 77.0918 30.4799C77.0918 30.372 77.0648 30.264 77.0918 30.1291V27.511C77.0918 27.376 77.0378 27.322 76.9029 27.322L76.0662 27.2681ZM75.2025 30.7768C75.3374 30.7768 75.3914 30.8308 75.3914 30.9658V31.7215C75.3914 31.7755 75.3644 31.8294 75.3374 31.8564C75.3104 31.8834 75.2564 31.9104 75.1755 31.9104H74.4197C74.3658 31.9104 74.3118 31.8834 74.2848 31.8564C74.2578 31.8294 74.2308 31.7755 74.2308 31.7215V30.9658C74.2308 30.9118 74.2578 30.8578 74.2848 30.8038C74.3118 30.7768 74.3658 30.7498 74.4197 30.7498L75.2025 30.7768ZM72.5844 30.0751V30.4259C72.5844 30.5339 72.5574 30.6149 72.5304 30.6958C72.5034 30.7768 72.4494 30.8308 72.3685 30.8578C72.2875 30.8848 72.2065 30.9118 72.0716 30.9118C71.9366 30.9118 71.8557 30.8848 71.7747 30.8578C71.6937 30.8308 71.6397 30.7768 71.6128 30.6958C71.5858 30.6149 71.5588 30.5339 71.5588 30.4259C71.5588 30.318 71.5318 30.21 71.5588 30.0751V29.1304V28.7795C71.5588 28.6716 71.5858 28.5906 71.6128 28.5096C71.6397 28.4287 71.6937 28.3747 71.7747 28.3477C71.8557 28.3207 71.9366 28.2937 72.0716 28.2937C72.2065 28.2937 72.2875 28.3207 72.3685 28.3477C72.4494 28.3747 72.5034 28.4287 72.5304 28.5096C72.5574 28.5906 72.5844 28.6716 72.5844 28.7795V30.0751ZM73.745 28.7525C73.745 28.6716 73.745 28.5906 73.718 28.4826C73.718 28.3747 73.691 28.2667 73.664 28.1318C73.637 28.0238 73.583 27.8888 73.5021 27.7809C73.4211 27.6729 73.3401 27.565 73.2052 27.457C73.0702 27.349 72.9353 27.2951 72.7463 27.2141C72.5574 27.1601 72.3415 27.1331 72.0716 27.1331C71.8017 27.1331 71.5858 27.1601 71.3968 27.2141C71.2079 27.2681 71.046 27.349 70.938 27.457C70.803 27.565 70.7221 27.6729 70.6411 27.7809C70.5601 27.8888 70.5061 28.0238 70.4792 28.1318C70.4522 28.2397 70.4252 28.3747 70.3982 28.4826C70.3982 28.5906 70.3712 28.6716 70.3712 28.7525V30.4259C70.3712 30.5069 70.3712 30.5879 70.3982 30.6958C70.3982 30.8038 70.4252 30.9118 70.4792 31.0467C70.5061 31.1547 70.5601 31.2896 70.6411 31.3976C70.7221 31.5056 70.803 31.6135 70.938 31.7215C71.0729 31.8294 71.2079 31.8834 71.3968 31.9644C71.5858 32.0184 71.8017 32.0454 72.0716 32.0454C72.3415 32.0454 72.5574 32.0184 72.7463 31.9644C72.9353 31.9104 73.0972 31.8294 73.2052 31.7215C73.3401 31.6135 73.4211 31.5056 73.5021 31.3976C73.583 31.2896 73.637 31.1547 73.664 31.0467C73.691 30.9388 73.718 30.8038 73.718 30.6958C73.718 30.5879 73.745 30.5069 73.745 30.4259V28.7525ZM66.6735 30.4259C66.6735 30.5069 66.6735 30.5879 66.7005 30.6958C66.7005 30.8038 66.7275 30.9118 66.7815 31.0467C66.8085 31.1547 66.8624 31.2896 66.9434 31.3976C67.0244 31.5056 67.1054 31.6135 67.2403 31.7215C67.3753 31.8294 67.5102 31.8834 67.6991 31.9644C67.8881 32.0184 68.104 32.0454 68.3739 32.0454C68.6168 32.0454 68.8057 32.0184 68.9947 31.9644C69.1566 31.9104 69.3186 31.8564 69.4265 31.7755C69.5345 31.6945 69.6424 31.6135 69.7234 31.5056C69.8044 31.3976 69.8584 31.2896 69.9124 31.1817C69.9663 31.0737 69.9933 30.9658 69.9933 30.8578C70.0203 30.7498 70.0203 30.6689 70.0203 30.5609C70.0203 30.5069 70.0203 30.4799 69.9933 30.4259C69.9663 30.399 69.9393 30.372 69.8854 30.372L69.1296 30.21C69.0757 30.183 68.9947 30.21 68.9677 30.237C68.9137 30.264 68.8867 30.318 68.8867 30.399C68.8867 30.5069 68.8597 30.5879 68.8057 30.6689C68.7788 30.7498 68.7248 30.8038 68.6438 30.8308C68.5628 30.8578 68.4819 30.8848 68.3469 30.8848C68.212 30.8848 68.131 30.8578 68.05 30.8308C67.969 30.8038 67.9151 30.7498 67.8881 30.6689C67.8611 30.5879 67.8341 30.5069 67.8341 30.399C67.8341 30.291 67.8071 30.183 67.8341 30.0481V29.1034V28.7525C67.8341 28.6446 67.8611 28.5636 67.8881 28.4826C67.9151 28.4017 67.969 28.3477 68.05 28.3207C68.131 28.2937 68.212 28.2667 68.3469 28.2667C68.4549 28.2667 68.5628 28.2937 68.6438 28.3207C68.7248 28.3477 68.7788 28.4017 68.8057 28.4826C68.8327 28.5636 68.8597 28.6446 68.8597 28.7256C68.8597 28.8065 68.8867 28.8605 68.9407 28.8875C68.9947 28.9145 69.0487 28.9415 69.1296 28.9415L69.8584 28.7795C69.9124 28.7795 69.9393 28.7525 69.9663 28.7256C69.9933 28.6986 69.9933 28.6446 69.9933 28.6176C69.9933 28.5366 69.9663 28.4287 69.9663 28.3207L69.8854 27.9968C69.8314 27.8888 69.7774 27.7809 69.6964 27.6729C69.6155 27.565 69.5075 27.484 69.3995 27.403C69.2646 27.3221 69.1296 27.2681 68.9677 27.2141C68.8057 27.1601 68.5898 27.1331 68.3469 27.1331C68.077 27.1331 67.8611 27.1601 67.6722 27.2141C67.4832 27.2681 67.3213 27.349 67.2133 27.457C67.0784 27.565 66.9974 27.6729 66.9164 27.7809C66.8355 27.8888 66.7815 28.0238 66.7545 28.1318C66.7275 28.2397 66.7005 28.3747 66.6735 28.4826C66.6735 28.5906 66.6465 28.6716 66.6465 28.7525V30.4259H66.6735ZM66.0527 30.7768C66.1877 30.7768 66.2417 30.8308 66.2417 30.9658V31.7215C66.2417 31.7755 66.2147 31.8294 66.1877 31.8564C66.1607 31.8834 66.1067 31.9104 66.0257 31.9104H65.27C65.216 31.9104 65.162 31.8834 65.1351 31.8564C65.1081 31.8294 65.0811 31.7755 65.0811 31.7215V30.9658C65.0811 30.9118 65.1081 30.8578 65.1351 30.8038C65.162 30.7768 65.216 30.7498 65.27 30.7498L66.0527 30.7768Z" fill="#CCCCCC"/>
<path d="M16.6334 13.4226C14.1233 13.2067 1.86966 15.204 0.951988 13.0448C-0.586465 9.45502 12.288 11.4793 14.0153 11.5333C14.879 11.5603 15.9587 11.7222 16.5794 11.5603C17.0113 11.4253 17.3082 10.7236 17.794 10.4537C18.8736 9.8059 20.628 10.1568 22.1395 10.2917C23.1651 10.3727 24.1637 10.4807 25.2434 10.5616C23.7049 10.7776 22.0585 10.9935 20.4391 11.2094C20.2501 11.2364 19.9532 11.1554 19.8183 11.3713C21.4647 11.6412 23.327 11.6952 25.1084 11.8302C23.354 12.1001 21.3837 12.1541 19.6563 12.478C19.7643 12.6669 20.0882 12.6129 20.2771 12.6399C21.8156 12.7479 23.516 12.8828 25.1354 12.9638C23.462 13.2337 21.5187 13.2877 19.8453 13.6116C19.8993 13.8815 20.2501 13.8005 20.4121 13.8005C21.9505 13.9894 23.6779 14.2053 25.2703 14.3403C23.516 14.4752 21.3567 14.8801 19.5484 14.9881C18.1449 15.069 17.3082 14.2593 16.6334 13.4226Z" fill="#CCCCCC"/>
<path d="M12.288 13.6386C14.2313 13.4766 15.8777 13.3417 16.6334 13.3957C16.9843 13.8275 17.3352 14.2324 17.821 14.5292C18.2798 14.8261 18.8196 15.0151 19.5214 14.9611C20.52 14.9071 21.6266 14.7452 22.7062 14.6102C23.489 14.5023 24.2447 14.3943 24.9465 14.3403C24.2447 14.2863 23.543 14.2054 22.8142 14.1244C21.9775 14.0434 21.1678 13.9355 20.4121 13.8275H20.2771C20.0882 13.8275 19.8453 13.8275 19.8183 13.6116V13.5846H19.8453C20.7629 13.3957 21.7886 13.2877 22.8142 13.2067C23.516 13.1527 24.2177 13.0718 24.8655 12.9908C23.6509 12.9098 22.3824 12.8289 21.1948 12.7479C20.8979 12.7209 20.601 12.6939 20.3041 12.6939H20.1691C19.9802 12.6939 19.7643 12.6939 19.6563 12.532L19.6293 12.505H19.6563C20.628 12.316 21.6806 12.2081 22.7332 12.1271C23.435 12.0731 24.1637 11.9921 24.8385 11.9112C24.4876 11.8842 24.1098 11.8572 23.7589 11.8302C22.4094 11.7492 21.0328 11.6683 19.8183 11.4793H19.7643L19.7913 11.4523C19.8992 11.2904 20.0882 11.2904 20.2501 11.2904H20.4121L21.7076 11.1285C22.7872 10.9935 23.8938 10.8316 24.9195 10.6966C24.2987 10.6426 23.6779 10.5886 23.0841 10.5347C22.7602 10.5077 22.4633 10.4807 22.1125 10.4537L21.3027 10.3727C20.0072 10.2378 18.6577 10.0758 17.794 10.6156C17.5781 10.7506 17.3891 10.9665 17.2272 11.1824C17.0113 11.4254 16.8223 11.6683 16.5794 11.7492C16.1476 11.8572 15.4998 11.8302 14.852 11.7762C14.5551 11.7492 14.2583 11.7222 13.9883 11.7222C13.6915 11.7222 13.0707 11.6413 12.261 11.5603C9.346 11.1015 3.86694 10.5347 1.7347 11.4523C0.97897 11.7762 0.655085 12.2621 0.97897 13.0448C1.59975 14.5292 7.75356 14.0164 12.288 13.6386ZM16.6334 13.4496C15.8777 13.3957 14.2313 13.5306 12.288 13.6925C7.75356 14.0704 1.57276 14.5832 0.924989 13.0448C0.574114 12.2351 0.924989 11.7222 1.70771 11.3714C3.86694 10.4537 9.346 11.0205 12.288 11.3174C13.0977 11.3984 13.7184 11.4793 14.0153 11.4793C14.2852 11.4793 14.5821 11.5063 14.879 11.5333C15.5268 11.5873 16.1476 11.6143 16.5794 11.5063C16.7953 11.4523 16.9843 11.2094 17.2002 10.9665C17.3891 10.7506 17.5511 10.5347 17.794 10.3997C18.6847 9.85991 20.0342 10.0218 21.3567 10.1568L22.1664 10.2378C22.4633 10.2648 22.8142 10.2918 23.1381 10.3187C23.8398 10.3727 24.5416 10.4537 25.2703 10.4807L25.5672 10.5077L25.2973 10.5617C24.1907 10.7236 23.0031 10.8855 21.8156 11.0475L20.52 11.2094H20.3581C20.2231 11.2094 20.0612 11.2094 19.9532 11.3174C21.1678 11.5063 22.5173 11.5873 23.8668 11.6683C24.3257 11.6953 24.7575 11.7222 25.2164 11.7492L25.4863 11.7762L25.2164 11.8032C24.4606 11.9112 23.6509 11.9922 22.8412 12.0731C21.8156 12.1811 20.7629 12.2621 19.8183 12.451C19.8992 12.5589 20.0882 12.5589 20.2501 12.5589H20.3851C20.682 12.5859 20.9789 12.6129 21.2758 12.6129C22.5713 12.7209 23.9208 12.8019 25.2164 12.8828L25.4863 12.9098L25.2164 12.9638C24.4606 13.0718 23.6779 13.1527 22.8952 13.2337C21.8965 13.3417 20.8979 13.4226 19.9802 13.6116C20.0342 13.7735 20.2231 13.7465 20.3851 13.7465H20.52C21.3027 13.8275 22.1125 13.9355 22.9222 14.0434C23.7319 14.1244 24.5686 14.2324 25.3513 14.2863V14.3403C24.5686 14.3943 23.6779 14.5292 22.7872 14.6372C21.7076 14.7722 20.601 14.9341 19.6024 14.9881C18.9006 15.0421 18.3338 14.8531 17.875 14.5562C17.3352 14.2863 16.9573 13.8815 16.6334 13.4496Z" fill="#CCCCCC"/>
</g>
<defs>
<clipPath id="clip0_32_1598">
<rect width="82.6446" height="32" fill="white" transform="translate(0.843994 -6.10352e-05)"/>
</clipPath>
</defs>
</svg>
