<svg width="97" height="32" viewBox="0 0 97 32" fill="none" xmlns="http://www.w3.org/2000/svg">
<path fill-rule="evenodd" clip-rule="evenodd" d="M1.84172 25.5529L9.54743 25.4493L9.56938 25.4043L1.2659 24.075L1.22353 23.9148L8.18598 23.8152C8.18598 23.8152 8.12829 23.6769 7.95065 23.3338L0.787068 22.1929L0.762565 22.0326L7.46467 21.9361L7.36002 21.4685L0.563988 20.4537L0.55633 20.2561L7.15838 20.1612L7.10733 19.6747L0.507324 18.5899L0.518555 18.4286L7.10937 18.3337C7.07517 18.1453 7.1303 17.7645 7.1303 17.7645L0.611973 16.7721L0.64107 16.6098L7.22729 16.5332C7.22627 16.4393 7.26456 16.0937 7.26456 16.0937L0.853941 14.9425L0.883038 14.7807L7.53154 14.6847C7.53154 14.6847 7.57493 14.3203 7.65099 14.1309L1.24293 13.1528L1.28989 12.9905L7.95218 12.8945C7.95218 12.8945 8.09052 12.5086 8.16709 12.3661L1.78863 11.4039L1.8356 11.2599L8.61019 11.1624C8.61019 11.1624 8.80621 10.7546 8.85165 10.6443L2.52219 9.66468L2.58753 9.52021L9.4826 9.42117C9.4826 9.42117 9.66739 9.05822 9.83687 8.80451L3.51406 7.82541L3.57889 7.69881L10.67 7.61458C10.67 7.61458 10.8834 7.27868 11.0697 7.10359L4.67795 6.14593L4.7969 6.00095L12.0467 5.89681C12.0467 5.89681 12.3296 5.58848 12.5317 5.4287L6.24717 4.46951L6.34825 4.32453L13.7354 4.21223L14.2183 3.78393L8.4938 2.54704L8.48002 2.54857C10.937 0.991602 13.9861 0.0507861 17.66 0.00177988C24.4897 -0.0906172 30.2566 3.2903 30.4491 11.2288L21.5698 11.3482C21.2757 8.53396 19.5978 7.57476 17.2072 7.60692C12.0422 7.67635 9.81135 13.214 9.88179 18.4654C9.93029 22.0505 11.499 24.4206 15.298 24.3686C17.8167 24.3349 19.9388 23.4104 20.8449 20.9218L16.5762 20.9785L17.8545 14.429L30.3189 14.261L27.0447 31.0839L21.1108 31.1636L21.3273 28.2156L21.241 28.1308C19.3134 30.8037 16.297 31.9543 13.0529 31.9982C6.71171 32.084 3.42983 28.9471 1.85091 25.5784L1.84172 25.5529ZM47.5818 14.4943C46.6722 13.9573 45.545 13.5872 44.0937 13.6041C42.2866 13.6245 40.3238 14.3591 40.3504 16.6312C40.3871 19.8345 46.9034 19.787 46.9611 24.7969C46.9943 27.6714 45.033 30.9528 40.4336 31.0053C38.216 31.0314 36.6223 30.5566 35.0822 29.9716L35.9296 27.4432C37.0598 28.142 38.6265 28.6168 39.968 28.602C42.8701 28.5683 44.0815 26.7474 44.0626 25.1593C44.0182 21.272 37.51 22.0316 37.4488 16.7205C37.4085 13.2431 40.5617 11.2354 43.7104 11.1992C45.2979 11.1808 46.8621 11.4641 48.32 12.0496L47.5818 14.4943ZM58.525 30.2217C57.187 30.5658 55.7939 30.8282 54.3983 30.844C51.0036 30.8828 47.9484 29.5499 47.8912 24.6218C47.8468 20.7615 50.5059 16.2677 55.4341 16.2106C58.8012 16.1718 60.7134 18.1759 60.7522 21.4889C60.7625 22.419 60.6624 23.2149 60.5348 24.0373L50.706 24.1511C50.6549 24.4408 50.6308 24.7345 50.634 25.0286C50.6677 27.9578 52.4845 28.7852 54.9762 28.7567C56.2626 28.7419 57.6552 28.3978 58.9084 27.8623L58.525 30.2217ZM58.1034 22.149C58.1544 21.7381 58.1774 21.4093 58.1733 21.08C58.1554 19.4378 57.1283 18.2724 55.1844 18.2944C53.0767 18.3183 51.4824 20.1719 50.9592 22.2317L58.1034 22.149ZM62.4154 18.5935C62.519 18.0172 62.6747 17.2765 62.7743 16.4541L65.1842 16.426L64.7713 18.6486H64.8259C65.6314 17.3244 67.123 16.0753 69.5596 16.0472C69.8056 16.0442 70.2446 16.0942 70.7398 16.2805L70.1905 18.5588C69.6959 18.3735 69.2844 18.2954 69.093 18.2984C65.9173 18.3342 64.3961 21.8019 64.0602 23.5309L62.688 30.4193L60.1147 30.4494L62.4154 18.5935ZM71.5346 16.352L74.108 16.3229L71.312 30.3192L68.7387 30.3494L71.5346 16.352ZM74.9211 13.1921L72.0186 13.2253L72.5867 10.316L75.4893 10.2829L74.9211 13.1921ZM84.3375 29.9226C82.9995 30.2667 81.6064 30.5291 80.2107 30.5449C76.816 30.5847 73.7608 29.2508 73.7042 24.3226C73.6592 20.4624 76.3183 15.9686 81.2465 15.9114C84.6136 15.8731 86.5259 17.8778 86.5647 21.1898C86.5749 22.1209 86.4749 22.9157 86.3472 23.7391L76.5184 23.852C76.4674 24.1416 76.4433 24.4354 76.4465 24.7295C76.4802 27.6586 78.297 28.4861 80.7886 28.4575C82.075 28.4437 83.4676 28.0987 84.7208 27.5642L84.3375 29.9226ZM83.9158 21.8499C83.9669 21.4389 83.9898 21.1102 83.9858 20.7809C83.9669 19.1387 82.9408 17.9733 80.9969 17.9952C78.8891 18.0202 77.2949 19.8728 76.7716 21.9326L83.9158 21.8499Z" fill="#CCCCCC"/>
<path fill-rule="evenodd" clip-rule="evenodd" d="M95.2679 18.5425C94.5522 18.1943 93.4255 17.8513 92.4674 17.8625C91.3448 17.8753 89.87 18.1933 89.8859 19.5905C89.9139 21.9714 94.6788 22.026 94.7237 25.9138C94.7625 29.282 91.6807 30.4122 89.4913 30.4372C87.2737 30.4632 86.4483 30.1712 85.4044 29.8272L85.8709 27.6045C86.8888 28.0032 87.9619 28.3743 89.0834 28.3611C90.4801 28.3452 92.0069 27.7521 91.9875 26.1645C91.9605 23.7826 87.1926 23.4814 87.1517 19.9499C87.118 16.9927 90.061 15.8089 92.3612 15.7823C93.5925 15.768 94.8559 16.0544 96.0111 16.5067L95.2679 18.5425Z" fill="#CCCCCC"/>
</svg>
