<svg width="68" height="32" viewBox="0 0 68 32" fill="none" xmlns="http://www.w3.org/2000/svg">
<path fill-rule="evenodd" clip-rule="evenodd" d="M2.41508 4.43037H6.62099C6.24424 4.17352 5.53498 3.84644 4.36749 3.84644C3.52243 3.84644 2.8896 4.08234 2.41508 4.43037ZM7.32714 4.43037H11.7263C11.2079 4.08234 10.4823 3.84644 9.46889 3.84644C8.39879 3.84644 7.70622 4.17352 7.32714 4.43037ZM1.82144 5.01431H12.3548C12.178 4.78722 11.9657 4.59006 11.7263 4.43037H7.32714C7.08232 4.59605 6.96824 4.73224 6.96824 4.73224C6.96824 4.73224 6.86348 4.59605 6.62099 4.43037H2.41508C2.19072 4.59613 1.99088 4.79272 1.82144 5.01431Z" fill="#CCCCCC"/>
<path fill-rule="evenodd" clip-rule="evenodd" d="M1.46945 5.57865H12.697C12.6051 5.3782 12.4904 5.18903 12.3551 5.01489H1.82137C1.68169 5.19648 1.56568 5.38776 1.46945 5.57865Z" fill="#CCCCCC"/>
<path fill-rule="evenodd" clip-rule="evenodd" d="M1.22917 6.16194H12.9013C12.8511 5.96141 12.7826 5.76594 12.6965 5.578H1.46935C1.36924 5.77666 1.29087 5.97493 1.22917 6.16194ZM1.07669 6.74627H3.76319C3.93624 6.54528 4.22142 6.3637 4.68741 6.3637C5.15378 6.3637 5.41917 6.54567 5.56972 6.74627H8.54722C8.72298 6.54528 9.0132 6.3637 9.48811 6.3637C9.93664 6.3637 10.204 6.54567 10.363 6.74627H12.9999C12.982 6.54937 12.9489 6.35414 12.9009 6.16233H1.22917C1.16641 6.35366 1.11548 6.54868 1.07669 6.74627Z" fill="#CCCCCC"/>
<path fill-rule="evenodd" clip-rule="evenodd" d="M1.00654 7.31016H3.50719V7.26981C3.50719 7.26981 3.54987 6.99394 3.76327 6.7464H1.07676C1.01546 7.06107 1.00654 7.26981 1.00654 7.26981V7.31016ZM5.76805 7.31016H8.28888V7.26981C8.28888 7.26981 8.33195 6.99394 8.54806 6.7464H5.57056C5.68311 6.89951 5.75155 7.08054 5.76844 7.26981V7.31016H5.76805ZM10.5889 7.31016H13.0097V7.26981C13.0097 7.26981 13.0291 7.06068 13.0003 6.7464H10.3635C10.5583 6.99394 10.5889 7.26981 10.5889 7.26981V7.31016ZM1.00537 7.8941H3.50719V7.31016H1.00654L1.00537 7.8941ZM5.76805 7.8941H8.28888V7.31016H5.76805V7.8941ZM10.5889 7.8941H13.0097V7.31016H10.5889V7.8941Z" fill="#CCCCCC"/>
<path fill-rule="evenodd" clip-rule="evenodd" d="M1.00427 8.47877H3.50764V7.89484H1.00582L1.00427 8.47877ZM5.76812 8.47877H8.28894V7.89484H5.76812V8.47877ZM10.589 8.47877H13.0097V7.89484H10.589V8.47877ZM1.00272 9.04254H3.50725V8.47877H1.00388L1.00272 9.04254ZM5.76812 9.04254H8.28894V8.47877H5.76812V9.04254ZM10.589 9.04254H13.0097V8.47877H10.589V9.04254Z" fill="#CCCCCC"/>
<path fill-rule="evenodd" clip-rule="evenodd" d="M1.00196 9.62599H3.50765V9.04205H1.00273L1.00196 9.62599ZM5.76813 9.62599H8.28896V9.04205H5.76813V9.62599ZM10.589 9.62599H13.0097V9.04205H10.589V9.62599ZM1.00079 10.1898H3.50765V9.62599H1.00196L1.00079 10.1898ZM5.76813 10.1898H8.28896V9.62599H5.76813V10.1898ZM10.589 10.1898H13.0097V9.62599H10.589V10.1898Z" fill="#CCCCCC"/>
<path fill-rule="evenodd" clip-rule="evenodd" d="M0.99918 10.7742H3.5072V10.1899H1.00034L0.99918 10.7742ZM5.76807 10.7742H8.2889V10.1899H5.76807V10.7742ZM10.589 10.7742H13.0097V10.1899H10.589V10.7742ZM0.998016 11.3581H3.50759V10.7742H0.999568L0.998016 11.3581ZM5.76807 11.3581H8.2889V10.7742H5.76807V11.3581ZM10.589 11.3581H13.0097V10.7742H10.589V11.3581Z" fill="#CCCCCC"/>
<path fill-rule="evenodd" clip-rule="evenodd" d="M0.996796 11.9217H3.50753V11.358H0.99796L0.996796 11.9217ZM5.76801 11.9217H8.28884V11.358H5.76801V11.9217ZM10.5889 11.9217H13.0096V11.358H10.5889V11.9217Z" fill="#CCCCCC"/>
<path fill-rule="evenodd" clip-rule="evenodd" d="M0.995667 12.5061H3.50757V11.9218H0.99683L0.995667 12.5061ZM5.76805 12.5061H8.28888V11.9218H5.76805V12.5061ZM10.5889 12.5061H13.0097V11.9218H10.5889V12.5061Z" fill="#CCCCCC"/>
<path fill-rule="evenodd" clip-rule="evenodd" d="M0.99411 13.0897H3.50757V12.5058H0.995662L0.99411 13.0897ZM5.76805 13.0897H8.28887V12.5058H5.76805V13.0897ZM10.5889 13.0897H13.0097V12.5058H10.5889V13.0897Z" fill="#CCCCCC"/>
<path fill-rule="evenodd" clip-rule="evenodd" d="M0.993399 13.6536H3.50763V13.0898H0.994175L0.993399 13.6536ZM5.76811 13.6536H8.28894V13.0898H5.76811V13.6536ZM10.589 13.6536H13.0097V13.0898H10.589V13.6536ZM0.991847 14.2375H3.50724V13.6536H0.993011L0.991847 14.2375ZM5.76811 14.2375H8.28894V13.6536H5.76811V14.2375ZM10.589 14.2375H13.0097V13.6536H10.589V14.2375ZM0.990295 14.8219H3.50724V14.2379H0.991847L0.990295 14.8219ZM5.76811 14.8219H8.28894V14.2379H5.76811V14.8219ZM10.589 14.8219H13.0097V14.2379H10.589V14.8219Z" fill="#CCCCCC"/>
<path fill-rule="evenodd" clip-rule="evenodd" d="M0.98911 15.3855H3.50722V14.8217H0.990274L0.98911 15.3855ZM5.76809 15.3855H8.28892V14.8217H5.76809V15.3855ZM10.589 15.3855H13.0097V14.8217H10.589V15.3855ZM0.987946 15.9694H3.50722V15.3855H0.98911L0.987946 15.9694ZM5.76809 15.9694H8.28892V15.3855H5.76809V15.9694ZM10.589 15.9694H13.0097V15.3855H10.589V15.9694Z" fill="#CCCCCC"/>
<path fill-rule="evenodd" clip-rule="evenodd" d="M0.986725 16.5535H3.50755V15.9695H0.988277L0.986725 16.5535ZM5.76803 16.5535H8.28886V15.9695H5.76803V16.5535ZM10.5889 16.5535H13.0096V15.9695H10.5889V16.5535Z" fill="#CCCCCC"/>
<path fill-rule="evenodd" clip-rule="evenodd" d="M0.985539 17.117H3.50753V16.5533H0.986703L0.985539 17.117ZM5.76801 17.117H8.28884V16.5533H5.76801V17.117ZM10.5889 17.117H13.0096V16.5533H10.5889V17.117ZM0.984375 17.7014H3.50753V17.117H0.985539L0.984375 17.7014ZM5.76801 17.7014H8.28884V17.117H5.76801V17.7014ZM10.5889 17.7014H13.0096V17.117H10.5889V17.7014Z" fill="#CCCCCC"/>
<path fill-rule="evenodd" clip-rule="evenodd" d="M0.982919 18.2652H3.50724V17.7014H0.984083L0.982919 18.2652ZM5.76811 18.2652H8.28893V17.7014H5.76811V18.2652ZM10.589 18.2652H13.0097V17.7014H10.589V18.2652ZM0.981755 18.8495H3.50763V18.2652H0.983307L0.981755 18.8495ZM5.76811 18.8495H8.28893V18.2652H5.76811V18.8495ZM10.589 18.8495H13.0097V18.2652H10.589V18.8495ZM0.980591 19.4331H3.50763V18.8495H0.981755L0.980591 19.4331ZM5.76811 19.4331H8.28893V18.8495H5.76811V19.4331ZM10.589 19.4331H13.0097V18.8495H10.589V19.4331Z" fill="#CCCCCC"/>
<path fill-rule="evenodd" clip-rule="evenodd" d="M0.978978 19.9978H3.50756V19.4333H0.98053L0.978978 19.9978ZM5.76804 19.9978H8.28887V19.4333H5.76804V19.9978ZM10.5889 19.9978H13.0097V19.4333H10.5889V19.9978ZM0.977814 20.5814H3.50718V19.9978H0.97859L0.977814 20.5814ZM5.76804 20.5814H8.28887V19.9978H5.76804V20.5814ZM10.5889 20.5814H13.0097V19.9978H10.5889V20.5814Z" fill="#CCCCCC"/>
<path fill-rule="evenodd" clip-rule="evenodd" d="M0.97668 21.1654H3.50721V20.5811H0.977844L0.97668 21.1654ZM5.76808 21.1654H8.2889V20.5811H5.76808V21.1654ZM10.589 21.1654H13.0097V20.5811H10.589V21.1654ZM0.975128 21.7295H3.50721V21.1658H0.97668L0.975128 21.7295ZM5.76808 21.7295H8.2889V21.1658H5.76808V21.7295ZM10.589 21.7295H13.0097V21.1658H10.589V21.7295Z" fill="#CCCCCC"/>
<path fill-rule="evenodd" clip-rule="evenodd" d="M0.974335 22.3135H3.50758V21.7292H0.975499L0.974335 22.3135ZM5.76806 22.3135H8.28889V21.7292H5.76806V22.3135ZM10.5889 22.3135H13.0097V21.7292H10.5889V22.3135Z" fill="#CCCCCC"/>
<path fill-rule="evenodd" clip-rule="evenodd" d="M0.972722 22.8968H3.50713V22.3132H0.973885L0.972722 22.8968ZM5.768 22.8968H8.28882V22.3132H5.768V22.8968ZM10.5889 22.8968H13.0096V22.3132H10.5889V22.8968ZM0.971558 23.4605H3.50713V22.8968H0.972722L0.971558 23.4605ZM5.768 23.4605H8.28882V22.8968H5.768V23.4605ZM10.5889 23.4605H13.0096V22.8968H10.5889V23.4605Z" fill="#CCCCCC"/>
<path fill-rule="evenodd" clip-rule="evenodd" d="M0.970406 24.0451H3.50714V23.4608H0.971571L0.970406 24.0451ZM5.76801 24.0451H8.28884V23.4608H5.76801V24.0451ZM10.5889 24.0451H13.0096V23.4608H10.5889V24.0451ZM0.96963 24.6294H3.50753V24.0451H0.970795L0.96963 24.6294ZM5.76801 24.6294H8.28884V24.0451H5.76801V24.6294ZM10.5889 24.6294H13.0096V24.0451H10.5889V24.6294ZM0.968079 25.1932H3.50753V24.6294H0.96963L0.968079 25.1932ZM5.76801 25.1932H8.28884V24.6294H5.76801V25.1932ZM10.5889 25.1932H13.0096V24.6294H10.5889V25.1932Z" fill="#CCCCCC"/>
<path fill-rule="evenodd" clip-rule="evenodd" d="M0.96698 25.7765H3.5076V25.1929H0.968144L0.96698 25.7765ZM5.76808 25.7765H8.2889V25.1929H5.76808V25.7765ZM10.589 25.7765H13.0097V25.1929H10.589V25.7765Z" fill="#CCCCCC"/>
<path fill-rule="evenodd" clip-rule="evenodd" d="M31.6348 3.60475H31.965L31.6348 3.02081V3.60475ZM31.6348 4.20886H32.3072L31.965 3.60475H31.6348V4.20886Z" fill="#CCCCCC"/>
<path fill-rule="evenodd" clip-rule="evenodd" d="M31.6348 4.81304H32.649L32.3072 4.20892H31.6348V4.81304ZM36.536 4.81304H38.8965V4.2291H36.536V4.81304Z" fill="#CCCCCC"/>
<path fill-rule="evenodd" clip-rule="evenodd" d="M31.6348 5.41749H32.9912L32.649 4.81299H31.6348V5.41749ZM36.536 5.41749H38.8965V4.81299H36.536V5.41749Z" fill="#CCCCCC"/>
<path fill-rule="evenodd" clip-rule="evenodd" d="M31.6348 6.0013H33.3214L32.9912 5.41736H31.6348V6.0013ZM36.536 6.0013H38.8965V5.41736H36.536V6.0013Z" fill="#CCCCCC"/>
<path fill-rule="evenodd" clip-rule="evenodd" d="M31.6348 6.60552H33.6636L33.3214 6.0014H31.6348V6.60552ZM36.536 6.60552H38.8965V6.0014H36.536V6.60552ZM31.6348 7.20963H34.0054L33.6636 6.60552H31.6348V7.20963ZM36.536 7.20963H38.8965V6.60552H36.536V7.20963Z" fill="#CCCCCC"/>
<path fill-rule="evenodd" clip-rule="evenodd" d="M31.6348 7.81326H34.3477L34.0055 7.20953H31.6348V7.81326ZM36.536 7.81326H38.8966V7.20953H36.536V7.81326ZM31.6348 8.39759H34.6779L34.3473 7.81326H31.6344V8.39759H31.6348ZM36.536 8.39759H38.8966V7.81326H36.536V8.39759Z" fill="#CCCCCC"/>
<path fill-rule="evenodd" clip-rule="evenodd" d="M31.6348 9.00212H35.0197L34.6778 8.39801H31.6348V9.00212ZM36.536 9.00212H38.8965V8.39801H36.536V9.00212ZM31.6348 9.60624H35.3623L35.0197 9.00212H31.6348V9.60624ZM36.536 9.60624H38.8965V9.00212H36.536V9.60624Z" fill="#CCCCCC"/>
<path fill-rule="evenodd" clip-rule="evenodd" d="M31.6348 10.2103H35.7041L35.3623 9.60577H31.6348V10.2103ZM36.536 10.2103H38.8965V9.60577H36.536V10.2103Z" fill="#CCCCCC"/>
<path fill-rule="evenodd" clip-rule="evenodd" d="M31.6348 10.7938H36.0343L35.7037 10.2098H31.6348V10.7938ZM36.536 10.7938H38.8965V10.2098H36.536V10.7938ZM31.6348 11.3979H36.3761L36.0343 10.7938H31.6348V11.3979ZM36.536 11.3979H38.8965V10.7938H36.536V11.3979Z" fill="#CCCCCC"/>
<path fill-rule="evenodd" clip-rule="evenodd" d="M31.6348 12.0021H38.8965V11.3979H36.536V11.6804L36.3761 11.3979H31.6348V12.0021ZM31.6348 12.6062H33.955V12.0626L34.305 12.6062H38.8965V12.0021H31.6348V12.6062Z" fill="#CCCCCC"/>
<path fill-rule="evenodd" clip-rule="evenodd" d="M31.6348 13.1906H33.955V12.6067H31.6348V13.1906ZM34.6802 13.1906H38.8965V12.6067H34.305L34.6802 13.1906Z" fill="#CCCCCC"/>
<path fill-rule="evenodd" clip-rule="evenodd" d="M31.6348 13.7949H33.955V13.1908H31.6348V13.7949ZM35.0689 13.7949H38.8965V13.1908H34.6802L35.0689 13.7949Z" fill="#CCCCCC"/>
<path fill-rule="evenodd" clip-rule="evenodd" d="M31.6348 14.3987H33.955V13.7946H31.6348V14.3987ZM35.4577 14.3987H38.8965V13.7946H35.0689L35.4577 14.3987Z" fill="#CCCCCC"/>
<path fill-rule="evenodd" clip-rule="evenodd" d="M31.6348 14.9829H33.955V14.3986H31.6348V14.9829ZM35.8329 14.9829H38.8965V14.3986H35.4577L35.8329 14.9829Z" fill="#CCCCCC"/>
<path fill-rule="evenodd" clip-rule="evenodd" d="M31.6348 15.5871H33.955V14.983H31.6348V15.5871ZM36.2213 15.5871H38.8965V14.983H35.8329L36.2213 15.5871Z" fill="#CCCCCC"/>
<path fill-rule="evenodd" clip-rule="evenodd" d="M31.6348 16.1911H33.955V15.587H31.6348V16.1911ZM36.6101 16.1911H38.8965V15.587H36.2213L36.6101 16.1911ZM31.6348 16.7953H33.955V16.1911H31.6348V16.7953ZM36.6361 16.7953H38.8965V16.1911H36.6101L36.6357 16.2315V16.7953H36.6361ZM31.6348 17.3796H33.955V16.7953H31.6348V17.3796ZM36.6361 17.3796H38.8965V16.7953H36.6361V17.3796Z" fill="#CCCCCC"/>
<path fill-rule="evenodd" clip-rule="evenodd" d="M31.6348 17.983H33.955V17.3789H31.6348V17.983ZM36.6361 17.983H38.8965V17.3789H36.6361V17.983ZM31.6348 18.5871H33.955V17.983H31.6348V18.5871ZM36.6361 18.5871H38.8965V17.983H36.6361V18.5871Z" fill="#CCCCCC"/>
<path fill-rule="evenodd" clip-rule="evenodd" d="M31.6348 19.1919H33.955V18.587H31.6348V19.1919ZM36.6361 19.1919H38.8965V18.587H36.6361V19.1919Z" fill="#CCCCCC"/>
<path fill-rule="evenodd" clip-rule="evenodd" d="M31.6348 19.7756H33.955V19.192H31.6348V19.7756ZM36.6361 19.7756H38.8965V19.192H36.6361V19.7756ZM31.6348 20.3805H33.955V19.7756H31.6348V20.3805ZM36.6361 20.3805H38.8965V19.7756H36.6361V20.3805Z" fill="#CCCCCC"/>
<path fill-rule="evenodd" clip-rule="evenodd" d="M31.6348 20.9845H33.955V20.3804H31.6348V20.9845ZM36.6361 20.9845H38.8965V20.3804H36.6361V20.9845Z" fill="#CCCCCC"/>
<path fill-rule="evenodd" clip-rule="evenodd" d="M31.6348 21.588H33.955V20.9839H31.6348V21.588ZM36.6361 21.588H38.8965V20.9839H36.6361V21.588ZM31.6348 22.1723H33.955V21.588H31.6348V22.1723ZM36.6361 22.1723H38.8965V21.588H36.6361V22.1723Z" fill="#CCCCCC"/>
<path fill-rule="evenodd" clip-rule="evenodd" d="M31.6348 22.7767H33.955V22.1726H31.6348V22.7767ZM36.6361 22.7767H38.8965V22.1726H36.6361V22.7767Z" fill="#CCCCCC"/>
<path fill-rule="evenodd" clip-rule="evenodd" d="M31.6348 23.3802H33.955V22.7761H31.6348V23.3802ZM36.6361 23.3802H38.8965V22.7761H36.6361V23.3802Z" fill="#CCCCCC"/>
<path fill-rule="evenodd" clip-rule="evenodd" d="M31.6348 23.9845H33.955V23.3804H31.6348V23.9845ZM36.6361 23.9845H38.8965V23.3804H36.6361V23.9845Z" fill="#CCCCCC"/>
<path fill-rule="evenodd" clip-rule="evenodd" d="M31.6348 24.5688H33.955V23.9845H31.6348V24.5688ZM36.6361 24.5688H38.8965V23.9845H36.6361V24.5688ZM31.6348 25.1729H33.955V24.5688H31.6348V25.1729ZM36.6361 25.1729H38.8965V24.5688H36.6361V25.1729Z" fill="#CCCCCC"/>
<path fill-rule="evenodd" clip-rule="evenodd" d="M31.6348 25.7767H33.955V25.1726H31.6348V25.7767ZM36.6361 25.7767H38.8965V25.1726H36.6361V25.7767Z" fill="#CCCCCC"/>
<path fill-rule="evenodd" clip-rule="evenodd" d="M52.8676 0.846103H54.7203V-0.00012207C54.7203 -0.00012207 53.9746 0.255181 52.8676 0.846103Z" fill="#CCCCCC"/>
<path fill-rule="evenodd" clip-rule="evenodd" d="M51.4352 1.69158H54.7203V0.84613H52.8676C52.3782 1.1072 51.9003 1.38928 51.4352 1.69158Z" fill="#CCCCCC"/>
<path fill-rule="evenodd" clip-rule="evenodd" d="M50.2614 2.51743H54.7202V1.69177H51.4351C51.0339 1.95263 50.6424 2.22804 50.2614 2.51743ZM49.2262 3.36327H54.7202V2.51743H50.2614C49.9066 2.78727 49.5613 3.06939 49.2262 3.36327ZM48.326 4.20911H53.8294C54.3757 3.95264 54.7206 3.84672 54.7206 3.84672V3.36327H49.2266C48.9167 3.63476 48.6164 3.91688 48.326 4.20911Z" fill="#CCCCCC"/>
<path fill-rule="evenodd" clip-rule="evenodd" d="M47.5385 5.05454H52.3271C52.8069 4.73682 53.3088 4.45401 53.8291 4.20831H48.3257C48.0541 4.48172 47.7916 4.76395 47.5385 5.05454ZM46.8498 5.90038H51.1919C51.554 5.5973 51.933 5.31503 52.3271 5.05493H47.5385C47.2998 5.32918 47.0701 5.61115 46.8498 5.90038Z" fill="#CCCCCC"/>
<path fill-rule="evenodd" clip-rule="evenodd" d="M46.245 6.74635H50.2786C50.5683 6.44892 50.8732 6.16661 51.1919 5.90051H46.8499C46.6392 6.17592 46.4375 6.45801 46.245 6.74635ZM45.7281 7.57201H49.5453C49.777 7.28565 50.0219 7.01014 50.279 6.74635H46.2454C46.0669 7.01213 45.895 7.28722 45.7281 7.57201Z" fill="#CCCCCC"/>
<path fill-rule="evenodd" clip-rule="evenodd" d="M45.2667 8.41755H48.9185C49.115 8.12665 49.3241 7.84444 49.5452 7.57172H45.728C45.5661 7.84912 45.4122 8.13118 45.2667 8.41755ZM44.8682 9.26378H48.399C48.5659 8.96735 48.7393 8.68566 48.9189 8.41794H45.2671C45.1274 8.69187 44.9939 8.97356 44.8682 9.26378Z" fill="#CCCCCC"/>
<path fill-rule="evenodd" clip-rule="evenodd" d="M44.5272 10.1094H47.9684C48.1011 9.82219 48.2446 9.54004 48.3987 9.26361H44.8679C44.7466 9.54239 44.633 9.82444 44.5272 10.1094Z" fill="#CCCCCC"/>
<path fill-rule="evenodd" clip-rule="evenodd" d="M44.2404 10.9547H47.6163C47.7254 10.6622 47.8429 10.3797 47.9679 10.1089H44.5267C44.4254 10.3844 44.33 10.6664 44.2404 10.9547ZM44.0087 11.7804H47.337C47.4235 11.496 47.5166 11.2209 47.6167 10.9547H44.2408C44.1562 11.2279 44.0788 11.5032 44.0087 11.7804Z" fill="#CCCCCC"/>
<path fill-rule="evenodd" clip-rule="evenodd" d="M43.8156 12.6263H47.1136C47.1811 12.3357 47.2552 12.0536 47.3371 11.7805H44.0088C43.9373 12.0607 43.8729 12.3428 43.8156 12.6263ZM43.6678 13.4721H46.9436C46.9929 13.1819 47.0495 12.9002 47.1136 12.6263H43.8156C43.7601 12.9029 43.7108 13.185 43.6678 13.4721Z" fill="#CCCCCC"/>
<path fill-rule="evenodd" clip-rule="evenodd" d="M43.5615 14.3179H46.8245C46.8571 14.0284 46.8975 13.7464 46.9437 13.472H43.6678C43.6258 13.7531 43.5904 14.0352 43.5615 14.3179ZM43.4912 15.1637H46.752C46.7694 14.875 46.7935 14.593 46.8249 14.3179H43.5619C43.5322 14.5993 43.5086 14.8813 43.4912 15.1637ZM43.4625 15.9894H46.7217C46.7256 15.7085 46.7353 15.433 46.752 15.1641H43.4912C43.4761 15.439 43.4665 15.7141 43.4625 15.9894Z" fill="#CCCCCC"/>
<path fill-rule="evenodd" clip-rule="evenodd" d="M43.4644 16.835H46.7306C46.7226 16.6338 46.7186 16.4324 46.7186 16.2309C46.7186 16.1498 46.7201 16.0699 46.7217 15.9892H43.4625C43.4609 16.1029 43.4578 16.2166 43.4578 16.3318C43.4578 16.5017 43.4609 16.6694 43.4644 16.835ZM51.4595 16.835H54.7203V16.3318H51.4595V16.835Z" fill="#CCCCCC"/>
<path fill-rule="evenodd" clip-rule="evenodd" d="M43.5079 17.6818H46.79C46.7624 17.4002 46.7427 17.1178 46.731 16.8351H43.4648C43.473 17.1223 43.4873 17.4043 43.5079 17.6818ZM51.4596 17.6818H54.7203V16.8351H51.4596V17.6818Z" fill="#CCCCCC"/>
<path fill-rule="evenodd" clip-rule="evenodd" d="M43.5867 18.5278H46.8998C46.8545 18.2471 46.8179 17.965 46.79 17.682H43.5079C43.5281 17.9683 43.5541 18.2512 43.5867 18.5278ZM51.4596 18.5278H54.7203V17.682H51.4596V18.5278Z" fill="#CCCCCC"/>
<path fill-rule="evenodd" clip-rule="evenodd" d="M43.7117 19.3732H47.0636C47.0002 19.093 46.9456 18.8109 46.8999 18.5273H43.5867C43.6217 18.8149 43.6639 19.0965 43.7117 19.3732ZM51.4596 19.3732H54.7204V18.5273H51.4596V19.3732Z" fill="#CCCCCC"/>
<path fill-rule="evenodd" clip-rule="evenodd" d="M43.8808 20.2188H47.2862C47.2027 19.9393 47.1284 19.6572 47.0635 19.3729H43.7116C43.7617 19.6608 43.8179 19.9429 43.8808 20.2188ZM51.4596 20.2188H54.7203V19.3729H51.4596V20.2188Z" fill="#CCCCCC"/>
<path fill-rule="evenodd" clip-rule="evenodd" d="M44.0907 21.0441H47.5637C47.4618 20.7723 47.3692 20.4971 47.2863 20.2189H43.8808C43.9445 20.5002 44.0139 20.7753 44.0907 21.0441ZM51.4596 21.0441H54.7203V20.2189H51.4596V21.0441ZM44.3565 21.8908H47.916C47.7887 21.6128 47.6712 21.3304 47.5637 21.0441H44.0907C44.1726 21.3328 44.2611 21.6157 44.3565 21.8908ZM51.4596 21.8908H54.7203V21.0441H51.4596V21.8908Z" fill="#CCCCCC"/>
<path fill-rule="evenodd" clip-rule="evenodd" d="M44.6784 22.7363H48.3439C48.1906 22.4598 48.0477 22.1776 47.9155 21.8904H44.356C44.4573 22.1795 44.5648 22.4612 44.6784 22.7363ZM51.4595 22.7363H54.7202V21.8904H51.4595V22.7363Z" fill="#CCCCCC"/>
<path fill-rule="evenodd" clip-rule="evenodd" d="M45.0615 23.5822H48.8581C48.6759 23.3071 48.5045 23.0249 48.3443 22.7364H44.6789C44.7992 23.0258 44.9272 23.3079 45.0615 23.5822ZM51.4596 23.5822H54.7203V22.7364H51.4596V23.5822Z" fill="#CCCCCC"/>
<path fill-rule="evenodd" clip-rule="evenodd" d="M45.5092 24.4279H49.4719C49.2553 24.1548 49.0505 23.8726 48.8581 23.582H45.0615C45.2039 23.873 45.354 24.1543 45.5092 24.4279ZM51.4596 24.4279H54.7203V23.582H51.4596V24.4279Z" fill="#CCCCCC"/>
<path fill-rule="evenodd" clip-rule="evenodd" d="M46.0155 25.2532H50.188C49.9369 24.9891 49.6979 24.7137 49.4718 24.4279H45.5092C45.6688 24.7085 45.8376 24.9838 46.0155 25.2532ZM51.4595 25.2532H54.7202V24.4279H51.4595V25.2532Z" fill="#CCCCCC"/>
<path fill-rule="evenodd" clip-rule="evenodd" d="M46.6135 26.0992H51.0922C50.7743 25.8353 50.4724 25.5526 50.1882 25.2526H46.0156C46.2055 25.5414 46.4049 25.8237 46.6135 26.0992ZM51.4596 26.0992H54.7204V25.2526H51.4596V26.0992Z" fill="#CCCCCC"/>
<path fill-rule="evenodd" clip-rule="evenodd" d="M47.3007 26.9453H54.7204V26.0995H51.4596V26.3816C51.4596 26.3816 51.3219 26.2884 51.0922 26.0995H46.6135C46.8329 26.3891 47.0621 26.6712 47.3007 26.9453Z" fill="#CCCCCC"/>
<path fill-rule="evenodd" clip-rule="evenodd" d="M48.0909 27.791H54.7202V26.9451H47.3005C47.5589 27.2423 47.8236 27.5232 48.0909 27.791Z" fill="#CCCCCC"/>
<path fill-rule="evenodd" clip-rule="evenodd" d="M49.0028 28.6366H54.7203V27.7908H48.091C48.3848 28.0834 48.6889 28.3655 49.0028 28.6366Z" fill="#CCCCCC"/>
<path fill-rule="evenodd" clip-rule="evenodd" d="M50.0592 29.4825H54.7207V28.6367H49.0031C49.3444 28.9318 49.6967 29.214 50.0592 29.4825ZM51.2671 30.3085H54.7203V29.4825H50.0589C50.4509 29.7731 50.854 30.0487 51.2671 30.3085ZM52.757 31.1544H54.7207V30.3085H51.2675C51.8029 30.6442 52.3073 30.9255 52.757 31.1544Z" fill="#CCCCCC"/>
<path fill-rule="evenodd" clip-rule="evenodd" d="M54.7203 32V31.1542H52.7567C53.9253 31.7494 54.7203 32 54.7203 32Z" fill="#CCCCCC"/>
<path fill-rule="evenodd" clip-rule="evenodd" d="M60.2621 17.1578H62.6425V16.9964H60.2621V17.1578ZM65.4237 17.1578H67.9041V16.9964H65.4237V17.1578ZM60.2621 17.7414H62.6425V17.1578H60.2621V17.7414ZM65.4237 17.7414H67.9041V17.1578H65.4237V17.7414Z" fill="#CCCCCC"/>
<path fill-rule="evenodd" clip-rule="evenodd" d="M60.2621 18.326H62.6425V17.7417H60.2621V18.326ZM65.4237 18.326H67.9041V17.7417H65.4237V18.326Z" fill="#CCCCCC"/>
<path fill-rule="evenodd" clip-rule="evenodd" d="M60.2621 18.9093H62.6425V18.3257H60.2621V18.9093ZM65.4237 18.9093H67.9041V18.3257H65.4237V18.9093ZM60.2621 19.4936H62.6425V18.9093H60.2621V19.4936ZM65.4237 19.4936H67.9041V18.9093H65.4237V19.4936Z" fill="#CCCCCC"/>
<path fill-rule="evenodd" clip-rule="evenodd" d="M60.2621 20.0782H62.6425V19.4939H60.2621V20.0782ZM65.4237 20.0782H67.9041V19.4939H65.4237V20.0782ZM60.2621 20.6625H62.6425V20.0782H60.2621V20.6625ZM65.4237 20.6625H67.9041V20.0782H65.4237V20.6625Z" fill="#CCCCCC"/>
<path fill-rule="evenodd" clip-rule="evenodd" d="M60.2621 21.2455H62.6425V20.662H60.2621V21.2455ZM65.4237 21.2455H67.9041V20.662H65.4237V21.2455ZM60.2621 21.8497H62.6425V21.2455H60.2621V21.8497ZM65.4237 21.8497H67.9041V21.2455H65.4237V21.8497ZM60.2621 22.434H62.6425V21.8497H60.2621V22.434ZM65.4237 22.434H67.9041V21.8497H65.4237V22.434Z" fill="#CCCCCC"/>
<path fill-rule="evenodd" clip-rule="evenodd" d="M60.3206 23.0182H62.9032C62.6917 22.7241 62.6424 22.4339 62.6424 22.4339H60.2621C60.2621 22.4339 60.2586 22.6694 60.3206 23.0182ZM65.3177 23.0182H67.8626C67.8913 22.8242 67.9014 22.6651 67.9041 22.5627V22.4339H65.4236C65.4236 22.4339 65.4523 22.7241 65.3177 23.0182ZM60.4708 23.6018H63.8945C63.392 23.5296 63.0867 23.2728 62.9032 23.0182H60.3206C60.3517 23.1901 60.3986 23.3895 60.4708 23.6018ZM64.4711 23.6018H67.7295C67.7954 23.3895 67.8362 23.1901 67.8622 23.0182H65.3173C65.2009 23.2728 64.9607 23.5296 64.4711 23.6018Z" fill="#CCCCCC"/>
<path fill-rule="evenodd" clip-rule="evenodd" d="M60.7246 24.1863H67.494C67.5956 23.9884 67.6721 23.7902 67.7295 23.602H64.4711C64.2799 23.6298 64.0857 23.6298 63.8945 23.602H60.4708C60.5345 23.7898 60.6167 23.9884 60.7246 24.1863Z" fill="#CCCCCC"/>
<path fill-rule="evenodd" clip-rule="evenodd" d="M61.1308 24.7704H67.1068C67.2574 24.5907 67.3873 24.3947 67.494 24.186H60.7246C60.8381 24.3952 60.9743 24.5911 61.1308 24.7704ZM61.8157 25.3539H66.4414C66.6912 25.1939 66.9155 24.9971 67.1068 24.7704H61.1308C61.3294 24.9973 61.5601 25.1939 61.8157 25.3539Z" fill="#CCCCCC"/>
<path fill-rule="evenodd" clip-rule="evenodd" d="M66.4413 25.3536H61.8156C62.3704 25.702 63.122 25.9379 64.1428 25.9379C65.1586 25.9379 65.9004 25.7024 66.4413 25.3536Z" fill="#CCCCCC"/>
<path fill-rule="evenodd" clip-rule="evenodd" d="M61.8036 4.26942H66.38C65.8259 3.92022 65.0713 3.68549 64.0431 3.68549C63.0653 3.6851 62.3409 3.92022 61.8036 4.26942ZM61.1389 4.85336H67.0613C66.8644 4.62604 66.6348 4.42924 66.38 4.26942H61.8036C61.5547 4.4306 61.3308 4.62734 61.1389 4.85336Z" fill="#CCCCCC"/>
<path fill-rule="evenodd" clip-rule="evenodd" d="M60.7412 5.43727H67.4598C67.3489 5.22857 67.2152 5.03274 67.0613 4.85333H61.1389C60.986 5.03327 60.8526 5.22902 60.7412 5.43727ZM60.4879 6.02121H67.7066C67.6416 5.81965 67.5589 5.62424 67.4594 5.43727H60.7409C60.6407 5.62469 60.5561 5.81999 60.4879 6.02121ZM60.3342 6.60553H62.8593C63.0452 6.33355 63.3874 6.08174 64.0225 6.08174C64.6682 6.08174 65.0162 6.33316 65.2032 6.60553H67.8502C67.8172 6.40757 67.7693 6.21237 67.707 6.0216H60.4883C60.4234 6.21243 60.372 6.40755 60.3342 6.60553Z" fill="#CCCCCC"/>
<path fill-rule="evenodd" clip-rule="evenodd" d="M60.2637 7.18918H62.648C62.6708 6.98045 62.7433 6.78022 62.8594 6.60525H60.3343C60.2835 6.87103 60.2684 7.08093 60.2637 7.18918ZM65.4179 7.18918H67.9042V7.14301C67.8985 6.96261 67.8804 6.78281 67.8502 6.60486H65.2033C65.3585 6.82951 65.4039 7.06813 65.4179 7.18918ZM60.2621 7.7933H62.6425V7.2695C62.6425 7.2695 62.6425 7.23923 62.648 7.18918H60.2637C60.2614 7.24079 60.2621 7.2695 60.2621 7.2695V7.7933ZM65.4237 7.7933H67.9042V7.18918H65.4179C65.4241 7.23923 65.4241 7.2695 65.4241 7.2695V7.7933H65.4237Z" fill="#CCCCCC"/>
<path fill-rule="evenodd" clip-rule="evenodd" d="M60.2621 8.3776H62.6425V7.79327H60.2621V8.3776ZM65.4237 8.3776H67.9041V7.79327H65.4237V8.3776ZM60.2621 8.96154H62.6425V8.3776H60.2621V8.96154ZM65.4237 8.96154H67.9041V8.3776H65.4237V8.96154Z" fill="#CCCCCC"/>
<path fill-rule="evenodd" clip-rule="evenodd" d="M60.2621 9.54536H62.6425V8.96143H60.2621V9.54536ZM65.4237 9.54536H67.9041V8.96143H65.4237V9.54536ZM60.2621 10.1297H62.6425V9.54575H60.2621V10.1297ZM65.4237 10.1297H67.9041V9.54575H65.4237V10.1297Z" fill="#CCCCCC"/>
<path fill-rule="evenodd" clip-rule="evenodd" d="M60.2621 10.7138H62.6425V10.1298H60.2621V10.7138ZM65.4237 10.7138H67.9041V10.1298H65.4237V10.7138ZM60.2621 11.2977H62.6425V10.7138H60.2621V11.2977ZM65.4237 11.2977H67.9041V10.7138H65.4237V11.2977ZM60.2621 11.8816H62.6425V11.2977H60.2621V11.8816ZM65.4237 11.8816H67.9041V11.2977H65.4237V11.8816Z" fill="#CCCCCC"/>
<path fill-rule="evenodd" clip-rule="evenodd" d="M60.2621 12.4653H62.6425V11.8814H60.2621V12.4653ZM65.4237 12.4653H67.9041V11.8814H65.4237V12.4653Z" fill="#CCCCCC"/>
<path fill-rule="evenodd" clip-rule="evenodd" d="M60.2621 13.0495H62.6425V12.4651H60.2621V13.0495ZM65.4237 13.0495H67.9041V12.4651H65.4237V13.0495Z" fill="#CCCCCC"/>
<path fill-rule="evenodd" clip-rule="evenodd" d="M60.2621 13.6335H62.6425V13.0496H60.2621V13.6335ZM65.4237 13.6335H67.9041V13.0496H65.4237V13.6335ZM60.2621 14.2178H62.6425V13.6339H60.2621V14.2178ZM65.4237 14.2178H67.9041V13.6339H65.4237V14.2178ZM60.2621 14.8219H62.6425V14.2178H60.2621V14.8219ZM65.4237 14.8219H67.9041V14.2178H65.4237V14.8219Z" fill="#CCCCCC"/>
<path fill-rule="evenodd" clip-rule="evenodd" d="M60.2621 15.4057H62.6425V14.8217H60.2621V15.4057ZM65.4237 15.4057H67.9041V14.8217H65.4237V15.4057ZM60.2621 15.9896H62.6425V15.4057H60.2621V15.9896ZM65.4237 15.9896H67.9041V15.4057H65.4237V15.9896Z" fill="#CCCCCC"/>
<path fill-rule="evenodd" clip-rule="evenodd" d="M60.2621 16.5735H62.6425V15.9892H60.2621V16.5735ZM65.4237 16.5735H67.9041V15.9892H65.4237V16.5735ZM67.9041 16.9964V16.5735H65.4237V16.9964H67.9041ZM62.6425 16.5735H60.2621V16.9964H62.6425V16.5735Z" fill="#CCCCCC"/>
<path fill-rule="evenodd" clip-rule="evenodd" d="M20.349 4.43037H24.9612C24.4203 4.08234 23.6765 3.84644 22.6526 3.84644C21.6333 3.84644 20.8907 4.08234 20.349 4.43037ZM19.6825 5.01431H25.6239C25.4339 4.78698 25.2103 4.59005 24.9608 4.43037H20.349C20.0987 4.59035 19.874 4.78722 19.6825 5.01431Z" fill="#CCCCCC"/>
<path fill-rule="evenodd" clip-rule="evenodd" d="M19.3061 5.57865H25.996C25.8932 5.37764 25.7685 5.18858 25.6243 5.01489H19.6825C19.5368 5.18853 19.4106 5.37758 19.3061 5.57865Z" fill="#CCCCCC"/>
<path fill-rule="evenodd" clip-rule="evenodd" d="M19.0659 6.16194H26.2307C26.1702 5.96062 26.0917 5.76517 25.996 5.578H19.3061C19.209 5.76519 19.1286 5.9606 19.0659 6.16194ZM18.9317 6.74627H21.5642C21.7454 6.50144 22.0791 6.26282 22.6925 6.26282C23.3254 6.26282 23.6602 6.50144 23.8364 6.74627H26.3591C26.3317 6.54859 26.2889 6.35336 26.2311 6.16233H19.0659C18.9988 6.37689 18.9573 6.57671 18.9317 6.74627Z" fill="#CCCCCC"/>
<path fill-rule="evenodd" clip-rule="evenodd" d="M18.8913 7.31016H21.352V7.26981C21.352 7.26981 21.3734 7.00442 21.5643 6.7464H18.9317C18.884 7.06107 18.8913 7.26981 18.8913 7.26981V7.31016ZM24.0327 7.31016H26.3933V7.1441C26.3893 7.01099 26.3777 6.87821 26.3588 6.7464H23.836C24.0222 7.00442 24.0327 7.26981 24.0327 7.26981V7.31016ZM18.8913 7.8941H21.352V7.31016H18.8913V7.8941ZM24.0327 7.8941H26.3933V7.31016H24.0327V7.8941Z" fill="#CCCCCC"/>
<path fill-rule="evenodd" clip-rule="evenodd" d="M18.8914 8.47877H21.352V7.89484H18.8914V8.47877ZM24.0327 8.47877H26.3933V7.89484H24.0327V8.47877ZM18.8914 9.04254H21.352V8.47877H18.8914V9.04254ZM24.0327 9.04254H26.3933V8.47877H24.0327V9.04254Z" fill="#CCCCCC"/>
<path fill-rule="evenodd" clip-rule="evenodd" d="M18.8914 9.62599H21.352V9.04205H18.8914V9.62599ZM24.0327 9.62599H26.3933V9.04205H24.0327V9.62599ZM18.8914 10.1898H21.352V9.62599H18.8914V10.1898ZM24.0327 10.1898H26.3933V9.62599H24.0327V10.1898Z" fill="#CCCCCC"/>
<path fill-rule="evenodd" clip-rule="evenodd" d="M18.8914 10.7742H21.352V10.1899H18.8914V10.7742ZM24.0327 10.7742H26.3933V10.1899H24.0327V10.7742ZM18.8914 11.3581H21.352V10.7742H18.8914V11.3581ZM24.0327 11.3581H26.3933V10.7742H24.0327V11.3581Z" fill="#CCCCCC"/>
<path fill-rule="evenodd" clip-rule="evenodd" d="M18.8914 11.9217H21.352V11.358H18.8914V11.9217ZM24.0327 11.9217H26.3933V11.358H24.0327V11.9217Z" fill="#CCCCCC"/>
<path fill-rule="evenodd" clip-rule="evenodd" d="M18.8914 12.5061H21.352V11.9218H18.8914V12.5061ZM24.0327 12.5061H26.3933V11.9218H24.0327V12.5061Z" fill="#CCCCCC"/>
<path fill-rule="evenodd" clip-rule="evenodd" d="M18.8914 13.0897H21.352V12.5058H18.8914V13.0897ZM24.0327 13.0897H26.3933V12.5058H24.0327V13.0897Z" fill="#CCCCCC"/>
<path fill-rule="evenodd" clip-rule="evenodd" d="M18.8914 13.6536H21.352V13.0898H18.8914V13.6536ZM24.0327 13.6536H26.3933V13.0898H24.0327V13.6536ZM18.8914 14.2375H21.352V13.6536H18.8914V14.2375ZM24.0327 14.2375H26.3933V13.6536H24.0327V14.2375ZM18.8914 14.8219H21.352V14.2379H18.8914V14.8219ZM24.0327 14.8219H26.3933V14.2379H24.0327V14.8219Z" fill="#CCCCCC"/>
<path fill-rule="evenodd" clip-rule="evenodd" d="M18.8914 15.3855H21.352V14.8217H18.8914V15.3855ZM24.0327 15.3855H26.3933V14.8217H24.0327V15.3855ZM18.8914 15.9694H21.352V15.3855H18.8914V15.9694ZM24.0327 15.9694H26.3933V15.3855H24.0327V15.9694Z" fill="#CCCCCC"/>
<path fill-rule="evenodd" clip-rule="evenodd" d="M18.8914 16.5535H21.352V15.9695H18.8914V16.5535ZM24.0327 16.5535H26.3933V15.9695H24.0327V16.5535Z" fill="#CCCCCC"/>
<path fill-rule="evenodd" clip-rule="evenodd" d="M18.8914 17.117H21.352V16.5533H18.8914V17.117ZM24.0327 17.117H26.3933V16.5533H24.0327V17.117ZM18.8914 17.7014H21.352V17.117H18.8914V17.7014ZM24.0327 17.7014H26.3933V17.117H24.0327V17.7014Z" fill="#CCCCCC"/>
<path fill-rule="evenodd" clip-rule="evenodd" d="M18.8914 18.2652H21.3521V17.7014H18.8914V18.2652ZM24.0327 18.2652H26.3933V17.7014H24.0327V18.2652ZM18.8914 18.8495H21.3521V18.2652H18.8914V18.8495ZM24.0327 18.8495H26.3933V18.2652H24.0327V18.8495ZM15.7975 19.4331H26.3933V18.8495H24.0327V18.9903H21.3521V18.8495H18.8914V18.9903H15.5103L15.7975 19.4331Z" fill="#CCCCCC"/>
<path fill-rule="evenodd" clip-rule="evenodd" d="M16.1634 19.9978H26.3934V19.4333H15.7975L16.1634 19.9978ZM16.5417 20.5814H26.3934V19.9978H16.1634L16.5417 20.5814Z" fill="#CCCCCC"/>
<path fill-rule="evenodd" clip-rule="evenodd" d="M16.9203 21.1653H26.3933V20.5814H16.5416L16.9203 21.1653ZM18.9914 21.7294H21.312V21.407H24.0928V21.7294H26.3933V21.1653H16.9203L17.051 21.3671H18.9914V21.7294Z" fill="#CCCCCC"/>
<path fill-rule="evenodd" clip-rule="evenodd" d="M18.9915 22.3135H21.3121V21.7292H18.9915V22.3135ZM24.0929 22.3135H26.3933V21.7292H24.0929V22.3135Z" fill="#CCCCCC"/>
<path fill-rule="evenodd" clip-rule="evenodd" d="M18.9915 22.8968H21.3121V22.3132H18.9915V22.8968ZM24.0929 22.8968H26.3933V22.3132H24.0929V22.8968ZM18.9915 23.4605H21.3121V22.8968H18.9915V23.4605ZM24.0929 23.4605H26.3933V22.8968H24.0929V23.4605Z" fill="#CCCCCC"/>
<path fill-rule="evenodd" clip-rule="evenodd" d="M18.9915 24.0451H21.3121V23.4608H18.9915V24.0451ZM24.0929 24.0451H26.3933V23.4608H24.0929V24.0451ZM18.9915 24.6294H21.3121V24.0451H18.9915V24.6294ZM24.0929 24.6294H26.3933V24.0451H24.0929V24.6294ZM18.9915 25.1932H21.3121V24.6294H18.9915V25.1932ZM24.0929 25.1932H26.3933V24.6294H24.0929V25.1932Z" fill="#CCCCCC"/>
<path fill-rule="evenodd" clip-rule="evenodd" d="M18.9915 25.7765H21.3121V25.1929H18.9915V25.7765ZM24.0929 25.7765H26.3933V25.1929H24.0929V25.7765Z" fill="#CCCCCC"/>
</svg>
