<svg width="82" height="32" viewBox="0 0 82 32" fill="none" xmlns="http://www.w3.org/2000/svg">
<path fill-rule="evenodd" clip-rule="evenodd" d="M8.38562 8.70349C9.00055 8.17634 9.792 7.91252 10.4952 7.91252C11.8143 7.91252 13.1329 8.52793 14.4515 9.58272L15.0669 10.1104L16.8249 7.64871L16.385 7.20885C14.7148 5.80247 12.9568 5.0988 10.9346 5.0988C9.43992 5.0988 8.03354 5.62643 6.62716 6.50566C5.22077 7.47267 4.34154 8.70301 4.07773 10.1977C3.72613 11.7801 4.07773 13.1865 5.22077 14.2412C5.92396 14.9449 7.06701 15.5603 8.73721 16.263C9.96803 16.7907 10.759 17.23 11.1106 17.5821C11.5505 18.1098 11.726 18.812 11.5505 19.6917C11.3744 20.5704 10.935 21.2741 10.1436 21.7135C9.4404 22.2411 8.64895 22.4172 7.85798 22.4172C6.01174 22.4172 4.4298 21.6257 3.02246 19.8673L2.58309 19.2528L0.385254 21.6257L0.825108 22.0651C1.5283 22.9448 2.49483 23.6485 3.72565 24.2629C5.04474 24.8783 6.27508 25.2309 7.50591 25.2309C9.08833 25.2309 10.4947 24.7906 11.8133 23.8235C13.3075 22.8565 14.275 21.5375 14.5388 19.8673C14.9782 18.1098 14.5388 16.7024 13.3957 15.5603C12.7803 14.9449 11.5495 14.2412 9.79104 13.5381H9.70326C7.68146 12.6588 6.80224 11.6918 6.97779 10.637C7.15479 9.84606 7.59464 9.14287 8.38562 8.70349ZM26.5832 -6.10352e-05H23.5944L22.3636 5.53817H18.32L17.7046 8.26364H21.7486L19.5508 18.7252C19.0232 21.0981 19.1992 22.8565 20.1662 23.9113C20.7816 24.7901 21.9247 25.2304 23.4193 25.2304C26.1443 25.2304 28.5182 23.7353 30.6278 20.7465L31.2432 19.8668L28.2544 19.1641L27.9906 19.6034C26.6715 21.4492 25.2656 22.4167 23.7709 22.4167C23.1555 22.4167 22.7157 22.3284 22.4518 21.9773C22.188 21.6252 22.1002 20.9216 22.3636 19.9546L24.8252 8.26268H31.3309L31.9464 5.53721H25.3524L26.5832 -6.10352e-05ZM46.9786 7.03329C45.9239 5.71421 44.5165 5.0988 42.6712 5.0988C40.0335 5.0988 37.7479 6.24136 35.9017 8.35189C34.3193 10.1981 33.2645 12.4837 32.7369 15.1209C31.8576 18.6374 32.297 21.2746 33.7916 23.2081C34.9342 24.5272 36.5171 25.2309 38.6267 25.2309C40.4729 25.2309 42.8458 24.7023 45.5713 23.5607L46.1867 23.2964L45.483 20.3081L44.6925 20.7474C42.583 21.8905 40.6485 22.4176 38.9783 22.4176C37.7475 22.4176 36.8687 22.0656 36.3411 21.4497C35.4618 20.4827 35.198 18.7252 35.5496 16.1753H47.7691L47.9452 15.5603C48.7361 11.6923 48.3845 8.79127 46.9786 7.03329ZM42.2304 7.91204C43.1984 7.91204 43.9889 8.26364 44.6043 9.05509C45.3957 10.1104 45.6591 11.5167 45.308 13.3625H36.165C36.6049 11.8679 37.3959 10.637 38.4511 9.58224C39.6819 8.52745 40.9123 7.91204 42.2304 7.91204ZM59.637 5.0988C57.8795 5.0988 56.2962 5.71421 54.978 6.94503V5.0115L51.9888 5.45087V6.15454C52.1648 7.91252 51.9888 10.0226 51.4611 12.3082L47.2415 31.9999H50.319L51.9883 24.2634C53.0827 24.9006 54.3271 25.2347 55.5934 25.2314C57.4392 25.2314 59.2854 24.4399 60.9561 23.0335C63.154 21.1868 64.5603 18.7261 65.2635 15.473C66.054 11.8688 65.7029 9.14383 64.1205 7.20933C62.9779 5.80247 61.4838 5.0988 59.637 5.0988ZM54.7142 11.0769C56.2093 8.96731 57.7035 7.91204 59.2859 7.91204C60.2529 7.91204 61.0444 8.3519 61.6588 9.05509C62.7136 10.2859 62.8019 12.3077 62.2743 15.0327C61.6588 18.1098 60.4285 20.2193 58.494 21.4497C57.527 22.0651 56.4722 22.4176 55.4174 22.4176C54.4504 22.4176 53.4839 21.9783 52.6042 21.0986L54.7142 11.0769ZM74.9341 13.5385C72.8245 12.6593 71.8566 11.6923 72.1208 10.6375C72.2969 9.84653 72.7363 9.14334 73.439 8.70349C74.1426 8.17634 74.8463 7.91252 75.6368 7.91252C76.9559 7.91252 78.274 8.52793 79.5931 9.58272L80.2085 10.1104L81.967 7.64871L81.5276 7.20885C79.8574 5.80247 78.0107 5.0988 76.0771 5.0988C74.582 5.0988 73.1756 5.62643 71.7688 6.50566C70.3624 7.47267 69.4836 8.70301 69.2198 10.1977C68.8687 11.7801 69.2198 13.1865 70.4506 14.2412C71.0661 14.8567 72.2091 15.5603 73.8793 16.263L76.2522 17.5821C76.6916 18.1098 76.8676 18.812 76.6916 19.6917C76.5165 20.5704 75.9889 21.2741 75.2852 21.7135C74.5815 22.2411 73.791 22.4172 72.9991 22.4172C71.1534 22.4172 69.5714 21.6257 68.2523 19.8673L67.7247 19.2528L65.6151 21.6257L65.9662 22.0651C66.6699 22.9448 67.6364 23.6485 68.8677 24.2629C70.0986 24.8783 71.4167 25.2309 72.648 25.2309C74.2304 25.2309 75.6363 24.7906 76.9554 23.8235C78.4496 22.8565 79.4166 21.5375 79.6809 19.8673C80.1202 18.1098 79.6809 16.7024 78.6261 15.5603C77.9224 14.9454 76.6916 14.2417 74.9341 13.5385Z" fill="#CCCCCC"/>
</svg>
