<svg width="36" height="36" viewBox="0 0 36 36" fill="none" xmlns="http://www.w3.org/2000/svg">
<g clip-path="url(#clip0_26_626)">
<path d="M34.5563 8.48713C34.5563 8.35036 34.5259 8.21359 34.4651 8.08442C34.3435 7.82609 34.108 7.65133 33.8497 7.59814L18.3722 0.0911777C18.1215 -0.0303926 17.8252 -0.0303926 17.5744 0.0911777L1.94506 7.66653C1.64113 7.81089 1.44358 8.11482 1.42838 8.45673V8.46433C1.42838 8.47193 1.42838 8.47953 1.42838 8.49472V27.5053C1.42838 27.8548 1.62593 28.1739 1.94506 28.3259L17.5744 35.9012C17.582 35.9012 17.582 35.9012 17.5896 35.9088C17.6124 35.9164 17.6352 35.924 17.658 35.9392C17.6656 35.9392 17.6732 35.9468 17.6884 35.9468C17.7112 35.9544 17.734 35.962 17.7568 35.9696C17.7644 35.9696 17.772 35.9772 17.7796 35.9772C17.8024 35.9848 17.8328 35.9848 17.8556 35.9924C17.8632 35.9924 17.8708 35.9924 17.8784 35.9924C17.9088 35.9924 17.9467 36 17.9771 36C18.0075 36 18.0455 36 18.0759 35.9924C18.0835 35.9924 18.0911 35.9924 18.0987 35.9924C18.1215 35.9924 18.1519 35.9848 18.1747 35.9772C18.1823 35.9772 18.1899 35.9696 18.1975 35.9696C18.2203 35.962 18.2431 35.9544 18.2659 35.9468C18.2735 35.9468 18.2811 35.9392 18.2963 35.9392C18.3191 35.9316 18.3418 35.924 18.3646 35.9088C18.3722 35.9088 18.3722 35.9088 18.3798 35.9012L34.0548 28.3031C34.3663 28.1511 34.5715 27.832 34.5715 27.4825V8.50992C34.5563 8.50232 34.5563 8.49472 34.5563 8.48713ZM17.9695 1.92233L31.5246 8.49472L26.5326 10.9185L12.9776 4.34614L17.9695 1.92233ZM17.9695 15.0671L4.41445 8.49472L10.8881 5.35669L24.4432 11.9291L17.9695 15.0671ZM3.25194 9.96117L17.0578 16.6551V33.6218L3.25194 26.9278V9.96117ZM18.8813 33.6218V16.6551L25.3625 13.5095V17.9468C25.3625 18.4483 25.7728 18.8586 26.2743 18.8586C26.7758 18.8586 27.1861 18.4483 27.1861 17.9468V12.6205L32.7327 9.93077V26.8974L18.8813 33.6218Z" fill="#C80606"/>
</g>
<defs>
<clipPath id="clip0_26_626">
<rect width="36" height="36" fill="white"/>
</clipPath>
</defs>
</svg>
