<svg width="40" height="40" viewBox="0 0 40 40" fill="none" xmlns="http://www.w3.org/2000/svg">
<path d="M37.8522 9.95931L30.2881 9.416L29.4502 9.35582L29.485 10.1952C29.5416 11.56 28.9083 12.3974 27.8393 13.5173C27.7235 13.6386 27.6031 13.7627 27.4791 13.8904C26.4694 14.9307 25.2264 16.2114 24.338 18.2112L24.3184 18.2554L24.3046 18.3018L23.4669 21.1183C22.8819 20.7904 22.5425 20.3615 22.3986 19.8208C22.187 19.026 22.3387 17.7929 23.222 15.9214C24.2014 14.1604 24.4901 12.6117 24.1497 11.3281C23.8023 10.018 22.8427 9.14485 21.6811 8.67593C19.4169 7.7619 16.1826 8.27968 14.0492 10.1196L13.9894 10.1712L13.9416 10.2342L10.983 14.1334C10.4261 14.4543 10.0598 14.5178 9.85245 14.5031C9.6674 14.49 9.56461 14.4144 9.48716 14.2921C9.39356 14.1443 9.32874 13.9017 9.3451 13.5988C9.36083 13.3076 9.44926 13.0203 9.58767 12.7993L13.699 7.20683L21.1509 3.21666L21.1974 3.19174L21.24 3.16056C21.6156 2.88549 22.2695 2.6724 23.3566 2.64929L37.7879 2.75327L37.8522 9.95931ZM16.0053 11.8513C16.3799 11.5475 16.8116 11.2883 17.2741 11.0955C16.939 11.6448 16.7371 12.1722 16.5819 12.7906C16.2888 13.504 16.0057 13.9254 15.7666 14.1229C15.6569 14.2134 15.5801 14.2373 15.5311 14.2431C15.4837 14.2488 15.4 14.2454 15.2615 14.1751L14.786 13.9335L14.4017 14.3034C14.1583 14.5378 13.9454 14.6986 13.7622 14.8L16.0053 11.8513ZM12.7523 18.6693C12.8269 18.4399 12.9062 18.3129 12.9582 18.2499C13.0254 18.2834 13.1469 18.3642 13.3134 18.5584L13.3133 18.5584L13.3178 18.5636C13.6437 18.9368 13.9876 19.6131 14.1632 20.4686C14.33 21.3115 14.2706 22.0726 14.1097 22.5492L14.1097 22.5492L14.1079 22.5546C14.0329 22.7824 13.9549 22.9099 13.9036 22.9731C13.8319 22.936 13.7095 22.8498 13.5538 22.6682L13.5538 22.6681L13.5488 22.6624C13.2148 22.2806 12.8719 21.6045 12.7045 20.7609C12.5359 19.9032 12.5902 19.15 12.7497 18.6773L12.7497 18.6774L12.7523 18.6693ZM13.8603 23.0178C13.8603 23.0178 13.8607 23.0174 13.8616 23.0169L13.8603 23.0178ZM13.9594 22.9962C13.9605 22.9964 13.9611 22.9965 13.9611 22.9965L13.9594 22.9962ZM13.0063 18.202C13.0063 18.202 13.006 18.2022 13.0054 18.2026L13.0063 18.202ZM15.9167 28.3832L15.9167 28.3832L15.9195 28.379C16.2001 27.9611 16.7686 27.4474 17.541 27.0641C18.2203 26.7354 18.882 26.5773 19.3645 26.5703C19.4595 26.5703 19.5034 26.5709 19.5493 26.5751L19.5654 26.5765L19.5815 26.5773C19.8232 26.5888 19.9653 26.6313 20.0377 26.6639C20.0208 26.7433 19.9697 26.8853 19.8332 27.0856L19.8305 27.0897C19.5514 27.5054 18.9836 28.0131 18.2061 28.3983C17.4328 28.7815 16.6797 28.9219 16.1774 28.892L16.1774 28.8919L16.1685 28.8915C15.9271 28.88 15.7847 28.8358 15.7123 28.8021C15.729 28.7245 15.7797 28.5844 15.9167 28.3832ZM20.0911 26.694C20.0911 26.6941 20.0907 26.6938 20.0901 26.6932L20.0911 26.694ZM20.0452 26.6029C20.045 26.602 20.045 26.6015 20.045 26.6015L20.0452 26.6029ZM15.6573 28.7699C15.6573 28.7699 15.6577 28.7702 15.6582 28.7707L15.6573 28.7699ZM15.7049 28.863C15.705 28.8638 15.705 28.8641 15.705 28.8641L15.7049 28.863ZM10.2779 34.6237L10.2779 34.6237L10.2805 34.6152C10.3078 34.5247 10.43 34.3092 10.9443 34.1575C11.1772 34.0902 11.4473 34.0455 11.7487 34.0389C12.134 34.0327 12.5725 34.0906 13.0361 34.2267C13.8528 34.472 14.4776 34.9064 14.8158 35.3099L14.8165 35.3107C15.169 35.7301 15.1541 35.9742 15.1252 36.0741C15.0973 36.164 14.9751 36.3785 14.4547 36.5298L14.4547 36.5298L14.447 36.5321C13.9344 36.6871 13.1803 36.7059 12.3734 36.4618L12.3718 36.4613C11.5584 36.2173 10.9316 35.7846 10.5822 35.3771C10.2288 34.9474 10.2508 34.7098 10.2779 34.6237Z" stroke="#C80606" stroke-width="1.5"/>
</svg>
