<svg width="36" height="36" viewBox="0 0 36 36" fill="none" xmlns="http://www.w3.org/2000/svg">
<g clip-path="url(#clip0_26_616)">
<path d="M32.3821 31.201L30.3105 7.85427C30.2732 7.39226 29.8857 7.04202 29.4162 7.04202H25.0494C25.042 3.15959 21.8824 0 18 0C14.1175 0 10.958 3.15959 10.9505 7.04202H6.5837C6.12169 7.04202 5.73419 7.39226 5.68948 7.85427L3.61786 31.201C3.61786 31.2308 3.61786 31.2532 3.61786 31.283C3.61786 33.8837 6.00991 36 8.94595 36H27.054C29.99 36 32.3821 33.8837 32.3821 31.283C32.3821 31.2532 32.3821 31.2308 32.3821 31.201ZM18 1.78845C20.8988 1.78845 23.2535 4.14324 23.261 7.04202H12.739C12.7464 4.14324 15.1012 1.78845 18 1.78845ZM27.054 34.2041H8.94595C7.00846 34.2041 5.42866 32.9149 5.40631 31.3128L7.40341 8.83047H10.9505V11.9677C10.9505 12.4595 11.3529 12.8619 11.8447 12.8619C12.3366 12.8619 12.739 12.4595 12.739 11.9677V8.83047H23.261V11.9677C23.261 12.4595 23.6634 12.8619 24.1552 12.8619C24.647 12.8619 25.0494 12.4595 25.0494 11.9677V8.83047H28.5965L30.5936 31.3202C30.5713 32.9149 28.9915 34.2041 27.054 34.2041Z" fill="#C80606"/>
<path d="M21.7184 18.6148L16.4425 23.8908L14.2889 21.7372C13.9387 21.3869 13.3723 21.3869 13.0221 21.7372C12.6719 22.0874 12.6719 22.6537 13.0221 23.004L15.8091 25.791C15.9805 25.9624 16.2115 26.0518 16.4425 26.0518C16.6735 26.0518 16.8971 25.9624 17.0759 25.791L22.9853 19.8816C23.3355 19.5314 23.3355 18.9651 22.9853 18.6148C22.635 18.272 22.0687 18.272 21.7184 18.6148Z" fill="#C80606"/>
</g>
<defs>
<clipPath id="clip0_26_616">
<rect width="36" height="36" fill="white"/>
</clipPath>
</defs>
</svg>
