<svg width="15" height="14" viewBox="0 0 15 14" fill="none" xmlns="http://www.w3.org/2000/svg">
<path d="M11.2475 11.2C11.6188 11.2 11.9749 11.3475 12.2374 11.6101C12.5 11.8726 12.6475 12.2287 12.6475 12.6C12.6475 12.9713 12.5 13.3274 12.2374 13.5899C11.9749 13.8525 11.6188 14 11.2475 14C10.8762 14 10.5201 13.8525 10.2575 13.5899C9.99498 13.3274 9.84749 12.9713 9.84749 12.6C9.84749 11.823 10.4705 11.2 11.2475 11.2ZM0.0474854 0H2.33649L2.99449 1.4H13.3475C13.5331 1.4 13.7112 1.47375 13.8425 1.60503C13.9737 1.7363 14.0475 1.91435 14.0475 2.1C14.0475 2.219 14.0125 2.338 13.9635 2.45L11.4575 6.979C11.2195 7.406 10.7575 7.7 10.2325 7.7H5.01749L4.38749 8.841L4.36649 8.925C4.36649 8.97141 4.38492 9.01592 4.41774 9.04874C4.45056 9.08156 4.49507 9.1 4.54149 9.1H12.6475V10.5H4.24749C3.87618 10.5 3.52009 10.3525 3.25754 10.0899C2.99498 9.8274 2.84749 9.4713 2.84749 9.1C2.84749 8.855 2.91049 8.624 3.01549 8.428L3.96749 6.713L1.44749 1.4H0.0474854V0ZM4.24749 11.2C4.61879 11.2 4.97488 11.3475 5.23743 11.6101C5.49999 11.8726 5.64749 12.2287 5.64749 12.6C5.64749 12.9713 5.49999 13.3274 5.23743 13.5899C4.97488 13.8525 4.61879 14 4.24749 14C3.87618 14 3.52009 13.8525 3.25754 13.5899C2.99498 13.3274 2.84749 12.9713 2.84749 12.6C2.84749 11.823 3.47049 11.2 4.24749 11.2ZM10.5475 6.3L12.4935 2.8H3.64549L5.29749 6.3H10.5475Z" fill="#C80606"/>
</svg>
